<svg width="567" height="352" viewBox="0 0 567 352" fill="none" xmlns="http://www.w3.org/2000/svg">
<path d="M178.899 346.861L178.899 347.261L178.182 346.995L177.823 346.928C177.823 346.928 177.465 347.195 177.465 347.261L177.465 347.862L195.929 347.862L223.176 347.862C223.176 347.862 222.818 347.862 222.638 347.729C222.638 347.729 222.28 347.729 222.101 347.729C221.921 347.729 221.742 347.595 221.742 347.462C221.742 347.328 221.742 346.995 222.997 346.861L178.54 346.861L178.899 346.861Z" fill="white"/>
<path d="M224.612 347.663C224.612 347.663 224.254 347.797 224.074 347.797L230.349 347.797C230.349 347.797 230.886 347.463 230.886 347.33C230.886 347.13 230.886 346.929 231.066 346.796L224.074 346.796C224.074 346.796 224.612 346.796 224.792 346.996C224.792 347.063 224.792 347.196 224.792 347.263C224.792 347.397 224.792 347.53 224.433 347.597L224.612 347.663Z" fill="white"/>
<path d="M473.782 347.864C473.782 347.864 475.037 347.264 475.754 346.863L419.646 346.863L460.875 337.988L485.972 340.724C485.972 340.724 486.33 340.524 486.509 340.391C486.868 340.124 487.227 339.99 487.406 339.857L463.923 337.321L501.388 329.247L505.153 330.648L505.153 330.515C505.153 330.515 505.153 330.381 505.153 330.248C505.153 330.047 505.153 329.781 505.332 329.247L503.718 328.646L505.69 328.246C505.69 328.246 505.69 327.645 505.69 327.445C505.69 327.312 505.69 327.178 505.69 327.045L414.268 346.863L362.462 346.863C361.565 347.197 360.669 347.464 360.131 347.464C359.773 347.464 359.594 347.464 359.594 347.397C359.594 347.397 359.594 347.264 359.594 347.197C359.594 347.064 360.131 346.93 360.49 346.863L304.919 346.863C304.919 346.863 304.919 346.863 304.919 346.93L304.919 347.064C304.919 347.064 304.74 347.464 304.381 347.531C304.023 347.531 303.844 347.531 303.664 347.464C303.485 347.33 303.127 347.197 303.306 346.997C303.306 346.997 303.485 346.997 303.664 346.863L233.753 346.863C233.753 346.863 233.753 347.264 233.753 347.397C233.753 347.531 233.395 347.731 233.215 347.864L410.145 347.864L396.521 350.867L385.228 350.867C385.228 350.867 385.048 351.001 384.869 351.001C384.69 351.001 384.511 351.201 384.331 351.268C384.152 351.468 383.794 351.668 383.256 351.735C383.256 351.735 383.256 351.801 383.077 351.801L397.059 351.801L415.164 347.798L473.961 347.798L473.782 347.864ZM387.737 347.597C387.737 347.597 387.737 347.33 387.737 347.197C387.737 347.064 387.917 346.997 388.096 346.997C388.454 346.93 388.813 346.997 388.813 346.997C389.171 347.064 389.171 347.264 389.171 347.397C389.171 347.597 388.992 347.731 388.454 347.731C388.096 347.731 387.737 347.731 387.558 347.597L387.737 347.597Z" fill="white"/>
<path d="M537.061 346.262L536.703 345.461C536.703 345.461 536.703 345.328 536.703 345.261L536.703 345.194L490.275 340.19C490.275 340.19 489.02 340.724 488.303 340.99L537.061 346.262Z" fill="white"/>
<path d="M2.50964 256.443L2.50964 240.628C2.50964 240.628 2.50964 240.628 2.33038 240.628C1.61334 240.494 1.43408 240.561 1.25482 240.628C1.25482 240.628 1.07556 240.761 1.07556 240.895C1.07556 241.028 1.07556 241.095 1.25482 241.161L1.25482 241.362C1.25482 241.362 1.25482 241.495 1.25482 241.562C1.25482 241.629 1.25482 241.695 1.25482 241.762L1.25482 242.096L0.537779 242.096C0.537779 242.096 0.179259 241.895 -6.44625e-07 241.895L-2.33348e-08 256.109C-2.33348e-08 256.109 0.717039 256.309 0.896299 256.443L1.25482 256.576L1.25482 256.643C1.25482 256.643 2.15112 256.509 2.50964 256.509L2.50964 256.443Z" fill="white"/>
<path d="M24.3796 74.2695L24.3796 71.1332C24.0194 71.8672 24.1995 73.0684 24.3796 74.2695Z" fill="white"/>
<path d="M2.5108 240.161L2.5108 227.749C2.5108 227.749 1.97302 227.749 1.6145 227.616C1.25598 227.482 0.897459 227.282 0.897459 227.082C0.897459 226.948 0.897459 226.815 1.25598 226.815L1.6145 226.815L1.6145 226.882C1.6145 226.882 2.15228 227.082 2.33154 227.148C2.33154 227.148 2.69006 227.148 2.86932 227.148L2.86932 200.657C2.86932 200.657 2.69006 200.19 2.5108 200.056C2.15228 199.656 1.25598 199.522 0.180418 199.456L0.18042 240.161C0.18042 240.161 0.35968 240.027 0.53894 239.961L0.897459 239.961C0.897459 239.961 1.25598 239.961 1.43524 239.961L1.97302 239.961L2.69006 240.228L2.5108 240.161Z" fill="white"/>
<path d="M266.561 1.13507L396.165 1.13507L409.789 4.1379L345.614 4.13791L345.614 4.20465C345.614 4.20465 345.435 4.60504 345.076 4.67175C344.718 4.67175 344.359 4.67175 344.001 4.47155C343.822 4.3381 344.001 4.20465 344.001 4.07119L267.815 4.0712C267.815 4.0712 267.995 4.20462 267.995 4.3381C267.995 4.60501 268.174 4.80521 268.353 5.07211L313.527 5.07211C313.527 5.07211 313.527 4.73846 313.885 4.60501C314.064 4.5383 314.244 4.47156 314.423 4.5383C314.602 4.5383 314.961 4.60501 315.14 4.73849C315.14 4.73849 315.14 4.87192 315.14 4.93866C315.14 5.0054 315.14 5.07214 315.14 5.13885L414.808 5.13885L421.8 6.67364C421.8 6.67364 422.158 6.54018 422.337 6.54018C422.517 6.54018 422.517 6.40673 422.696 6.33999C422.696 6.33999 422.696 6.27328 422.696 6.07308C422.696 6.00634 422.696 5.87289 422.696 5.67269L420.366 5.13885L455.68 5.13885C455.68 5.13885 455.859 4.87194 456.038 4.80523C456.397 4.67174 456.934 4.73849 457.114 4.80523C457.293 4.80523 457.472 4.87191 457.652 4.93865C457.652 4.93865 457.652 5.00539 457.652 5.0721L457.652 5.13885L543.338 5.13884L461.416 14.0139L424.13 6.00634L424.13 6.07308C424.13 6.07308 424.309 6.34002 424.488 6.47347L424.488 6.67364C424.488 6.67364 424.13 7.00732 423.771 7.07403L494.579 22.3552C494.579 22.3552 493.683 22.0882 493.683 21.8213C493.683 21.6879 493.862 21.6211 494.041 21.5544C494.221 21.5544 494.579 21.5544 494.758 21.5544C494.938 21.5544 495.117 21.6211 495.117 21.6879C495.117 21.6879 495.655 21.6879 495.834 21.7546C495.834 21.7546 496.73 21.7546 497.089 21.7546C497.268 21.7546 497.806 21.8213 497.806 21.9548C497.806 21.9548 497.626 22.155 497.447 22.155C497.447 22.155 496.73 22.2884 496.551 22.2217C496.551 22.2217 496.013 22.2217 495.655 22.2217C495.655 22.2217 494.938 22.2884 494.758 22.2217L551.763 34.5L551.763 56.0538C551.763 56.0538 551.763 56.1872 551.763 56.254L551.763 56.3874L551.763 61.0585C551.763 61.0585 552.121 61.192 552.121 61.2587C552.121 61.3254 552.121 61.4589 552.121 61.5924C552.121 61.6591 552.121 61.6591 552.121 61.7258L552.121 105.634C552.121 105.634 552.121 105.701 552.121 105.768L552.121 140.534L542.441 144.071L542.441 163.155C542.441 163.155 542.441 163.289 542.441 163.355C542.441 163.422 542.441 163.489 542.441 163.556L542.441 291.811C542.441 291.811 542.621 291.877 542.621 291.944C542.621 292.144 542.621 292.144 542.621 292.144C542.621 292.144 543.159 292.144 543.338 292.211C543.876 292.344 543.876 292.545 543.876 292.611C543.876 292.611 543.517 293.012 543.158 293.078C542.979 293.078 542.621 293.078 542.441 293.078C542.441 293.012 542.441 292.945 542.441 292.878L542.441 292.811C542.441 292.811 542.262 292.811 542.083 292.811L542.083 319.437L509.278 326.51C509.278 326.51 509.278 326.777 509.278 326.977C509.278 327.244 509.278 327.444 509.278 327.711L528.459 323.574L549.791 345.395L527.204 336.987C527.204 336.987 527.204 337.187 527.025 337.254C526.846 337.32 526.487 337.387 525.95 337.32C525.77 337.32 525.591 337.32 525.412 337.187C525.233 337.053 525.412 336.92 525.412 336.853C525.412 336.653 525.95 336.586 526.129 336.586L509.099 330.247C509.099 330.247 509.099 330.447 509.099 330.514C508.92 330.848 508.561 331.048 508.203 331.315L548.536 346.329L538.677 345.261L538.139 346.195L543.876 346.796L479.88 346.796C479.88 346.796 479.521 346.996 479.342 347.063C478.804 347.463 478.266 347.597 477.729 347.797L554.452 347.797L554.452 341.124C554.452 341.124 554.093 340.79 554.273 340.657C554.273 340.657 554.273 340.657 554.452 340.59L554.452 233.489C554.452 233.489 553.735 233.355 553.556 233.288C553.197 233.155 553.376 232.755 553.376 232.688C553.376 232.688 554.093 232.421 554.631 232.421L554.631 185.243C554.631 185.243 554.273 185.176 554.273 185.109L554.273 184.976C554.273 184.976 553.914 184.842 553.914 184.776C553.914 184.709 553.735 184.642 553.735 184.576C553.735 184.576 553.735 184.375 553.914 184.309C554.093 184.242 554.273 184.108 554.273 183.975C554.273 183.908 554.631 183.842 554.81 183.842L554.81 180.305C554.81 180.305 554.452 180.572 554.273 180.572C554.093 180.572 553.914 180.572 553.735 180.572C553.735 180.572 553.018 180.505 553.018 180.372C553.018 180.372 553.018 180.238 553.018 180.171C553.197 180.038 553.556 179.904 554.093 179.838C554.093 179.838 554.452 179.838 554.631 179.838L554.631 140.801L567 136.263L567 56.1205L566.642 55.987C566.642 55.987 566.641 55.3865 567 55.0528L567 36.5019L554.81 33.8994L554.81 4.00444L416.242 4.00445L398.317 0.0673771L267.098 0.0673828C267.278 0.534485 267.636 0.934875 267.636 1.00159L266.561 1.13507ZM464.105 14.7479L480.238 13.013C480.238 13.013 480.238 12.8795 480.238 12.8128C480.418 12.6126 480.776 12.6126 481.493 12.6793C481.852 12.6793 482.031 12.8128 482.031 12.8795L547.64 5.73943L518.958 16.4162C518.958 16.4162 518.958 16.6164 518.958 16.6831C518.958 16.7499 518.958 16.8833 518.958 16.9501C518.779 17.0835 518.6 17.217 518.062 17.217C518.062 17.217 517.345 17.217 516.987 17.217L501.749 22.889L464.284 14.8147L464.105 14.7479ZM504.08 23.3561L530.252 13.6135C530.252 13.6135 529.893 13.6803 529.535 13.6135C529.176 13.6135 528.997 13.4801 528.997 13.4133C528.997 13.4133 529.176 13.2132 529.355 13.0797L529.355 12.9462C529.355 12.9462 529.714 12.8128 530.073 12.7461C530.431 12.7461 530.431 12.7461 530.61 12.7461C530.61 12.7461 530.969 12.6793 531.148 12.6793C531.148 12.6793 531.507 12.6793 531.865 12.6793C531.865 12.6793 532.044 12.7461 532.044 12.8128L549.074 6.47347L535.988 19.8194C535.988 19.8194 536.347 19.686 536.705 19.7527C537.064 19.7527 537.064 19.8862 537.243 19.9529C537.422 19.9529 537.601 20.0864 537.601 20.0864C537.601 20.0864 537.601 20.1531 537.601 20.2198C537.601 20.2198 537.601 20.2865 537.601 20.3533L537.601 20.4867L537.601 20.6202C537.601 20.6202 537.422 20.7537 537.243 20.7537C536.884 20.7537 536.705 20.7537 536.526 20.6869C536.526 20.6869 535.988 20.5535 535.988 20.4867L528.101 28.4276L504.438 23.3561L504.08 23.3561ZM551.046 194.051C551.046 194.051 551.763 194.051 551.942 194.051L552.301 194.051L552.301 194.185L552.659 194.185C552.659 194.185 552.301 194.518 552.121 194.585C551.942 194.585 551.584 194.719 551.584 194.785L551.584 194.985C551.584 194.985 551.225 195.252 551.225 195.319L551.225 204.127L553.018 204.928L551.225 204.461L551.225 259.847C552.301 260.047 552.48 260.247 552.48 260.381L552.48 260.514C552.48 260.648 552.301 260.714 551.942 260.714C551.763 260.714 551.584 260.714 551.404 260.714L551.404 344.527L530.252 323.107L543.696 320.237L544.413 320.104L544.413 179.838L544.055 179.971C544.055 179.971 543.876 180.171 543.517 180.171C543.159 180.171 542.8 180.171 542.621 179.904C542.621 179.771 542.621 179.504 542.621 179.237C542.621 179.237 542.262 179.104 542.262 178.97L542.262 178.837C542.262 178.837 541.904 178.837 541.724 178.703C541.724 178.637 541.724 178.503 541.724 178.436C541.724 178.37 541.904 178.236 542.441 178.236C543.159 178.169 543.876 178.236 544.234 178.503C544.593 178.637 544.234 178.77 544.234 178.837C544.234 178.837 544.234 178.97 544.234 179.037C544.234 179.17 544.234 179.237 544.234 179.371L544.234 173.899C544.234 173.899 543.876 173.899 543.696 173.899L543.158 173.765L543.696 173.565C543.696 173.565 543.696 173.432 543.696 173.365C543.696 173.231 543.696 173.098 543.158 173.098L542.083 173.098L542.621 172.831L542.979 172.631L543.338 172.497L543.696 172.631L544.055 172.631L544.055 172.764C544.055 172.764 544.234 172.764 544.413 172.831L544.413 144.471L551.225 141.935L551.225 193.984L551.046 194.051ZM553.018 141.602L553.018 141.668L553.556 141.668L553.556 141.935L553.197 142.069L552.48 142.669L552.48 141.468L553.197 141.668L553.018 141.602ZM563.236 37.2359L563.236 135.996L553.735 139.533L553.735 130.324C553.735 130.324 553.735 130.324 553.735 130.257L553.735 54.519C553.735 54.519 553.376 54.519 553.197 54.519C553.018 54.519 552.48 54.3188 552.659 54.1186C552.659 53.9852 553.018 53.9184 553.197 53.9184L553.197 53.785C553.197 53.785 553.376 53.5848 553.735 53.5848L553.735 35.3675L563.236 37.4361L563.236 37.2359ZM551.046 19.1521C551.046 19.1521 551.404 19.1521 551.584 19.1521C551.942 19.2856 552.121 19.4191 552.121 19.5525C552.121 19.5525 552.121 19.6193 552.121 19.686C551.942 19.8862 551.584 20.0196 551.225 20.0196L551.225 21.0206C551.225 21.0206 551.225 20.9538 551.225 20.8871C551.584 20.8204 551.942 20.8204 552.121 20.8871C552.48 21.0206 552.659 21.2208 552.659 21.4209L552.659 21.5544C552.659 21.7546 552.121 21.888 551.584 21.888C551.404 21.888 551.225 21.888 551.046 21.8213L551.046 33.4323L530.073 28.8947L551.046 7.47438L551.046 19.0854L551.046 19.1521Z" fill="white"/>
<path d="M148.965 4.13712L10.3971 4.13713L10.3971 49.8471C10.3971 49.8471 10.5763 49.7137 10.7556 49.7137C11.1141 49.7137 11.4726 49.7137 11.6519 49.9138C11.6519 49.9806 11.8311 50.114 11.8311 50.1808C11.8311 50.381 11.6519 50.5144 11.1141 50.5811C10.9348 50.5811 10.5763 50.5811 10.3971 50.5811L10.3971 140.199L-2.60475e-06 144.07L-2.24598e-07 198.521L0.537779 198.521C0.537779 198.521 2.15112 198.722 2.6889 199.055L2.6889 144.47L10.3971 141.601L10.3971 203.326C10.3971 203.326 10.9349 203.459 11.2934 203.526C12.0104 203.66 12.3689 203.66 13.086 203.66L13.086 140.6L24.5586 136.329L24.5586 78.0071C23.8416 77.3398 23.3038 76.6058 23.1245 76.0052C22.766 74.8041 22.4075 72.6687 22.4075 71.4009L22.4075 71.134C22.4075 70.1997 22.766 70.0663 23.3038 69.7993C23.483 69.7326 23.6623 69.5992 23.8416 69.4657C24.2001 69.132 24.3793 69.0653 24.3793 68.9319L24.3793 37.1017C24.3793 37.1017 24.3793 37.5688 24.0208 37.6355C23.483 37.769 22.9453 37.769 22.5867 37.6355C22.2282 37.5021 22.049 37.3019 22.2282 37.1017C22.4075 36.9015 22.9453 36.7013 23.6623 36.7013C24.0208 36.7013 24.3793 36.7013 24.5586 36.8348L24.5586 32.2971L23.8416 32.2971L35.4934 29.7614C35.4934 29.7614 35.3142 29.7614 35.1349 29.6279C35.1349 29.5612 35.1349 29.4945 35.1349 29.4278C35.1349 29.0941 35.4934 28.8939 35.852 28.8272C36.0312 28.8272 36.3897 28.8939 36.7483 29.0274C36.7483 29.0274 37.1068 29.0274 37.1068 29.0941C37.1068 29.1608 37.1068 29.2276 37.1068 29.2943L149.323 5.07133L265.305 5.07132L265.305 4.93787C265.305 4.93787 264.946 4.40403 264.588 4.00365L224.613 4.00365C224.613 4.00365 225.509 4.27059 225.509 4.5375C225.509 4.5375 225.15 4.87113 224.971 4.93787C224.613 4.93787 224.075 4.93789 223.716 4.80443C223.358 4.67096 223.179 4.47075 223.358 4.3373C223.358 4.13711 223.896 4.00367 224.075 3.93694L154.163 3.93694L168.504 0.93409L198.799 0.934089C198.799 0.934089 198.62 0.800635 198.261 0.733909C198.261 0.733909 197.724 0.60044 197.724 0.466971L197.724 0.40026C197.724 0.40026 197.724 0.266776 197.724 0.200049C197.724 0.133323 197.724 0.066596 197.724 -0.000130713L167.608 -0.000129397L148.427 4.00366L148.965 4.13712ZM10.5763 122.383L10.5763 122.316C10.5763 122.316 10.3971 122.116 10.3971 121.982C10.3971 121.849 10.7556 121.782 10.9348 121.782C11.2934 121.782 11.6519 121.849 12.0104 121.982C12.1897 122.049 12.5482 122.182 12.5482 122.383L12.5482 122.449C12.5482 122.449 12.1897 122.783 11.6519 122.783C10.9348 122.783 10.7556 122.649 10.7556 122.383L10.5763 122.383ZM21.6904 51.7155C21.6904 51.7155 21.6904 51.7155 22.049 51.7155C22.4075 51.7155 22.4075 51.9158 22.5867 51.9825C22.5867 51.9825 22.5867 52.1159 22.5867 52.1827C22.5867 52.3161 22.5867 52.3829 22.2282 52.5831C22.2282 52.5831 22.049 52.7165 22.049 52.7832C22.049 52.85 22.049 52.9167 21.6904 52.9834L21.6904 115.71L22.049 115.509L22.4075 115.643L23.1245 115.643L22.4075 116.11L21.6904 116.11L21.6904 134.527C21.6904 134.527 21.6904 134.661 21.6904 134.794C21.6904 134.861 21.6904 134.928 21.5112 134.994L21.5112 135.929L12.7274 139.198L12.7274 85.8813C12.7274 85.8813 12.1897 85.8813 12.0104 85.8145C11.6519 85.6143 11.4726 85.4809 11.6519 85.3474C11.6519 85.214 12.0104 85.1472 12.5482 85.1472C12.5482 85.1472 12.5482 85.1472 12.7274 85.1472L12.7274 74.337C12.7274 74.337 12.3689 74.6039 12.0104 74.6039C11.6519 74.6039 11.4726 74.4704 11.2934 74.4037L11.2934 74.2703C11.2934 74.2703 10.5763 73.9366 10.7556 73.7364L10.7556 73.5362C10.7556 73.5362 11.1141 73.2693 11.2934 73.0691C11.2934 73.0691 12.0104 72.4686 12.5482 72.3351L12.5482 34.6327L21.3319 32.7643L21.3319 51.7823L21.6904 51.7155ZM12.9067 33.4315L12.9067 7.47362L33.8801 28.8939L12.9067 33.4315ZM14.8786 6.60612L25.6342 10.6099C25.6342 10.6099 25.6342 10.4765 25.8134 10.4098C25.8134 10.4098 26.5305 10.4098 26.7097 10.4098C27.0682 10.5432 27.2475 10.7434 27.2475 10.9436L27.2475 11.077C27.2475 11.077 27.2475 11.077 27.0682 11.077L53.0609 20.7529C53.0609 20.7529 52.7024 20.6194 52.8817 20.486C52.8817 20.2858 53.4194 20.219 53.5987 20.219C53.9572 20.219 54.3157 20.2858 54.8535 20.486C54.8535 20.5527 55.0328 20.6862 55.0328 20.7529C55.0328 20.8863 55.0328 20.9531 54.6743 21.0865C54.6743 21.0865 54.3157 21.0865 54.1365 21.0865L59.8728 23.2219L36.2105 28.2933L14.8786 6.47269L14.8786 6.60612ZM16.1334 5.6719L99.6685 14.7472L62.2032 22.8215L16.1334 5.6719ZM20.9734 5.13808L144.125 5.13807L102.895 14.0131L20.9734 5.13808ZM145.918 5.47172L145.918 5.60519C145.918 5.60519 145.559 5.87209 145.2 5.93884C144.842 5.93884 144.483 5.93884 144.125 5.87211C143.766 5.73866 143.587 5.60519 143.766 5.40501C143.766 5.20481 144.304 5.20481 144.663 5.13807L145.021 5.00462C145.021 5.00462 145.021 5.07134 145.2 5.13807C145.38 5.20481 145.738 5.27154 145.738 5.47172L145.918 5.47172Z" fill="white"/>
<path d="M199.877 0.533097C199.877 0.533097 200.415 0.5331 200.594 0.66656C200.594 0.66656 200.952 0.59983 201.132 0.66656C201.311 0.66656 201.49 0.733293 201.49 0.800022C201.49 0.800022 201.49 0.866755 201.49 0.933485C201.49 0.933485 201.49 1.06694 201.311 1.13367L263.156 1.13366C263.156 1.13366 263.156 1.13366 263.156 1.0002L263.156 0.866764C263.156 0.866764 263.156 0.39965 263.156 0.132731L239.673 0.132732C239.673 0.132732 239.673 0.332928 239.493 0.399658C239.493 0.399658 239.135 0.466387 238.776 0.399658C238.776 0.399658 238.776 0.466365 238.597 0.533095L238.059 0.533095C238.059 0.533095 237.701 0.266192 237.521 0.132732C237.521 0.132732 237.521 0.132718 237.521 0.0659877L199.339 0.0659894C199.339 0.0659894 199.518 0.266188 199.698 0.466378L199.877 0.533097Z" fill="white"/>
<path d="M221.207 351.733C221.207 351.733 220.848 351.533 220.848 351.266C220.848 351.132 220.848 350.932 221.207 350.865L221.565 350.799L168.684 350.799L154.343 347.796L177.109 347.796L176.571 347.462L176.571 347.329L176.033 347.195L176.033 347.129C176.033 347.129 176.033 346.995 176.212 346.928C176.212 346.928 176.212 346.928 176.212 346.862L149.323 346.862L47.1453 324.44L47.1453 324.974L46.249 324.507C46.249 324.507 45.8905 324.374 45.8905 324.24L26.889 320.103C26.889 320.103 26.889 320.236 26.889 320.303C26.889 320.303 26.1719 320.437 25.9927 320.437C25.9927 320.437 25.2756 320.437 25.0964 320.303L25.0964 320.17C25.0964 320.17 24.7379 319.97 24.7379 319.903C24.7379 319.836 24.7379 319.703 24.7379 319.636L25.0964 319.502L14.3408 317.167C14.3408 317.167 13.803 317.434 13.6237 317.434C13.6237 317.434 13.4445 317.434 13.2652 317.434C13.2652 317.434 13.2652 317.501 13.086 317.567C13.086 317.567 12.5482 317.567 12.3689 317.567C12.3689 317.567 12.1897 317.567 12.0104 317.567C12.0104 317.567 11.6519 317.567 11.4726 317.501C11.4726 317.501 11.4726 317.367 11.4726 317.3C11.4726 317.167 11.4726 317.167 11.4726 317.033L11.4726 316.967C11.4726 316.967 11.6519 316.767 11.8311 316.7L11.8311 316.566C11.8311 316.566 12.1897 316.166 12.5482 316.166L12.9067 316.166L12.9067 256.109C12.9067 256.109 12.7274 256.243 12.7274 256.309C12.7274 256.576 12.7274 256.71 12.3689 256.776C12.1897 256.776 12.0104 256.776 11.8311 256.776C11.2934 256.643 10.7556 255.976 10.9348 255.842C10.9348 255.775 11.4726 255.308 12.1897 255.242C12.7274 255.242 12.9067 255.442 13.086 255.642L13.086 204.594C13.086 204.594 12.1897 204.594 11.8311 204.594C11.4726 204.594 11.1141 204.46 10.7556 204.527C10.7556 204.527 10.5763 204.527 10.3971 204.527L10.3971 232.487C10.3971 232.487 10.5763 232.286 10.7556 232.22L10.7556 232.153C10.7556 232.153 10.9348 231.953 11.2934 231.886L11.6519 231.886C11.6519 231.886 11.8311 231.886 12.0104 231.886C12.3689 231.953 12.3689 232.22 12.3689 232.353C12.3689 232.487 12.3689 232.487 12.3689 232.62L12.3689 232.82C12.3689 232.82 11.8311 233.221 11.4726 233.221C11.4726 233.221 11.1141 233.221 10.9348 233.02C10.9348 233.02 10.7556 233.02 10.5763 232.887L10.5763 249.77C10.5763 249.77 11.1141 249.636 11.4726 249.636C11.4726 249.636 11.8311 249.636 11.8311 249.703C11.8311 249.703 11.8311 249.57 12.1897 249.503L12.7274 249.503C12.7274 249.503 13.086 249.77 13.086 249.903C13.086 249.97 13.086 250.037 13.086 250.103C13.086 250.17 12.7274 250.37 12.0104 250.37C11.8311 250.37 11.6519 250.37 11.4726 250.304L11.1141 250.437C11.1141 250.437 10.9348 250.437 10.7556 250.437L10.7556 297.415C10.7556 297.415 11.1141 297.415 11.1141 297.548C11.1141 297.548 11.1141 297.682 11.1141 297.749L11.1141 316.299L3.22668 314.631L3.22667 293.344C3.22667 293.344 2.33038 293.344 2.15112 293.077C2.15112 292.877 1.7926 292.744 2.15112 292.61C2.50964 292.544 2.68889 292.61 2.86815 292.61L2.86815 257.11C2.86815 257.11 2.86815 257.177 2.86815 257.31L2.86815 257.377C2.86815 257.377 2.50963 257.577 2.33037 257.577C2.33037 257.577 2.33037 257.577 2.33037 257.644C2.33037 257.711 2.33037 257.777 2.33037 257.911C2.33037 258.044 2.33037 258.111 2.33037 258.178C2.15111 258.511 1.61333 258.511 1.43407 258.511C1.07555 258.511 0.896295 258.378 0.717035 258.178L0.717035 257.977C0.717035 257.977 0.717035 257.711 0.717035 257.51C0.717035 257.377 0.717035 257.31 0.717035 257.243C0.717035 257.11 0.717035 257.11 0.717035 257.043L0.358516 256.91L0.358517 298.282C0.358517 298.282 0.537777 298.416 0.537777 298.549L0.537777 298.683C0.537777 298.683 0.537777 298.883 0.717037 299.083C0.717037 299.15 0.717037 299.15 0.717037 299.217C0.717037 299.217 0.896297 299.35 0.896297 299.417C0.896297 299.417 0.896297 299.951 0.179258 300.017C0.179258 300.017 0.179258 300.017 -2.2664e-06 300.017L-1.60135e-06 315.232L10.3971 317.501L10.3971 327.577C10.3971 327.577 10.7556 327.377 11.1141 327.443C11.6519 327.443 11.8311 327.71 11.8311 327.844C11.8311 327.844 11.4726 328.177 11.1141 328.244C10.9348 328.244 10.5763 328.244 10.3971 328.177L10.3971 347.863L133.907 347.863L133.011 347.462L134.624 347.863L148.965 347.863L157.211 349.598C157.211 349.598 157.211 349.331 157.211 349.197L157.211 349.064C157.211 349.064 157.39 348.864 157.749 348.797C158.107 348.663 158.645 348.73 158.824 348.73C159.183 348.73 159.183 348.864 159.362 349.064C159.362 349.131 159.362 349.331 159.541 349.331C159.9 349.464 160.258 349.598 160.258 349.731L160.258 349.865C160.258 349.931 159.721 349.998 159.541 349.998L168.146 351.866L188.94 351.866C188.94 351.866 189.657 351.6 190.015 351.6C190.553 351.6 190.912 351.6 191.091 351.866L221.386 351.866L221.386 351.733L221.207 351.733ZM144.304 346.862L21.1527 346.862L37.6446 345.06C37.6446 345.06 37.6446 344.793 38.0031 344.66C38.3616 344.459 38.7201 344.393 39.0786 344.393C39.6164 344.393 39.9749 344.66 39.9749 344.793L103.612 337.92L144.483 346.862L144.304 346.862ZM100.386 337.253L91.781 338.187L91.781 338.387C91.781 338.387 91.781 338.52 91.781 338.654C91.781 338.654 91.2433 338.854 91.064 338.854C90.5262 338.854 90.7055 338.587 90.7055 338.52C90.7055 338.387 90.7055 338.387 90.7055 338.387L85.5069 338.921L85.1484 338.921L57.0046 341.99C57.0046 341.99 57.0046 342.191 57.0046 342.257L57.0046 342.391C57.0046 342.391 56.1083 342.658 55.7498 342.658C55.3913 342.658 55.212 342.591 55.212 342.458L55.212 342.324L55.212 342.191L16.3126 346.328L62.7409 329.045L100.386 337.253ZM60.4106 328.511L15.0578 345.394L18.2845 342.124C18.2845 342.124 18.1052 341.99 18.2845 341.924C18.2845 341.857 18.643 341.724 19.0015 341.657L36.9275 323.306L60.7691 328.511L60.4106 328.511ZM13.086 318.101L34.4179 322.772L13.086 344.526L13.086 318.101Z" fill="white"/>
<path d="M382.363 350.866L226.766 350.866L225.869 351.199L225.152 350.999L225.511 350.866L221.746 350.866C221.746 350.866 222.105 350.866 222.284 350.932C222.643 350.999 223.001 351.266 223.001 351.399L223.001 351.466C223.001 351.466 222.463 351.733 222.105 351.8L258.853 351.8C258.853 351.8 258.495 351.533 258.853 351.399C258.853 351.399 258.853 351.133 259.212 351.066C259.212 351.066 259.57 351.066 259.929 351.066C260.467 351.133 260.646 351.199 260.646 351.333L260.646 351.6C260.646 351.6 261.004 351.8 261.184 351.867L308.687 351.867C308.687 351.867 307.97 351.733 307.791 351.533C307.791 351.533 308.15 351.266 308.329 351.133C308.508 350.999 308.867 350.999 309.225 351.133C309.584 351.199 309.763 351.399 309.763 351.533C309.763 351.533 309.763 351.666 309.763 351.733C309.405 352 308.867 352 308.867 352L380.571 352C380.571 352 381.467 351.666 381.646 351.533C381.826 351.399 382.184 351.199 382.543 350.999L382.363 350.866Z" fill="white"/>
</svg>
