<svg width="527" height="324" viewBox="0 0 527 324" fill="none" xmlns="http://www.w3.org/2000/svg">
<path d="M255.598 5.57886L255.297 5.67917L255.598 5.57886Z" fill="#D38D36"/>
<path d="M208.349 309.528H219.183C219.183 309.528 219.483 309.127 219.584 309.026C219.784 308.826 219.885 308.625 219.985 308.525C220.186 308.424 220.286 308.224 220.386 308.023C220.487 307.923 220.687 307.823 220.788 307.522C221.088 306.619 221.69 306.318 221.991 306.017C222.092 306.017 222.192 305.917 222.292 305.816C222.493 305.716 222.794 305.616 222.994 305.515L224.198 303.509H228.612C228.612 303.509 229.414 303.108 229.715 303.008C230.317 302.707 230.719 302.506 231.019 302.305C231.12 302.305 231.22 302.105 231.32 302.004H225.101L227.007 298.794H236.938C236.938 298.794 236.938 298.694 236.938 298.594C236.938 298.393 236.737 298.192 236.637 297.992C236.537 297.791 236.336 297.591 236.336 297.29H226.104L223.295 302.004H209.954L206.342 308.023H203.333L207.847 300.7L206.543 299.898L201.527 308.023H103.521C103.521 308.023 103.321 308.324 103.02 308.424H102.819C102.819 308.424 102.518 308.424 102.418 308.324C102.418 308.324 102.418 308.124 102.418 308.023H31.6968L6.71878 283.145V263.183V231.785V192.563H6.51816C5.81596 192.061 5.51502 191.66 5.21408 191.359V231.785H2.20468V202.293L1.6028 201.591L2.30499 201.791V189.052L1.40217 188.55L0.800293 188.249V279.334L5.21408 283.747V309.528H31.0949L35.7093 314.042L35.91 314.243H104.123C104.123 314.243 104.123 314.042 104.123 313.841C104.725 313.139 105.227 312.838 105.628 312.838C105.628 312.838 106.129 313.139 106.23 313.239V313.641C106.23 313.641 105.929 314.042 105.527 314.142H199.621L202.531 309.327H206.443L210.054 315.346H214.969C214.969 315.346 215.672 314.945 215.972 314.845C216.474 314.644 216.875 314.544 217.277 314.042H210.957L208.248 309.428L208.349 309.528ZM211.057 303.509H222.593L219.885 308.023H208.349L211.057 303.509ZM5.11377 281.641L2.20468 278.732V263.183H5.11377V281.641ZM5.11377 259.873V261.678H2.20468V233.29H5.11377V259.271H5.21408C5.21408 259.271 5.31439 259.572 5.21408 259.772H5.11377V259.873ZM10.2298 308.023C10.2298 308.023 10.2298 308.224 10.0291 308.224H9.92881C9.92881 308.224 9.72818 308.224 9.62787 308.224C9.62787 308.224 9.62787 308.224 9.52756 308.124H6.71878V285.352L29.5902 308.124H10.2298V308.023ZM58.8817 312.838H36.5119L33.2015 309.528H39.9225C39.9225 309.528 39.9225 309.227 39.9225 309.127V308.826H40.2234C40.2234 308.826 41.6278 309.227 42.2297 309.528H58.7814V312.838H58.8817ZM88.7751 312.738H60.3864V309.829H88.7751V312.738ZM198.919 312.838H141.038C141.038 312.838 141.44 313.139 141.44 313.34C141.44 313.54 141.239 313.741 140.838 313.741H140.737C140.737 313.741 140.336 313.54 140.236 313.44C140.236 313.24 140.236 313.139 140.236 312.939C140.236 312.939 140.437 312.939 140.537 312.838H90.0792V309.528H200.725L198.719 312.838H198.919Z" fill="#D38D36"/>
<path d="M526.343 36.2749V35.8736L521.929 31.4598V5.57899H520.424C520.424 5.57899 520.825 5.87993 520.825 6.08055C520.825 6.28118 520.524 6.48181 520.223 6.48181H520.023C520.023 6.48181 519.622 6.28118 519.521 6.08055C519.521 5.87993 519.521 5.6793 519.622 5.47867H495.948L491.534 1.06488L491.333 0.864258H454.518V1.1652H454.418C454.418 1.1652 454.418 1.56645 454.318 1.66676C454.318 1.66676 454.318 1.66676 454.217 1.76708C454.217 1.76708 454.318 1.96771 454.217 2.16833C454.217 2.26865 454.017 2.36896 453.916 2.46927C453.916 2.46927 453.816 2.46927 453.716 2.46927C453.716 2.46927 453.615 2.46927 453.515 2.46927H453.415C453.415 2.46927 453.014 1.76708 453.014 1.36582C453.014 1.1652 453.214 1.1652 453.314 1.06488H433.553C433.553 1.06488 433.753 1.06488 433.553 1.26551C433.452 1.46614 433.352 1.56645 433.151 1.56645C433.051 1.56645 432.951 1.56645 432.75 1.46614C432.449 1.36582 432.148 1.46614 431.847 1.26551C431.747 1.26551 431.747 1.06488 431.647 0.964571H362.029C362.029 0.964571 361.829 0.964571 361.728 0.964571C361.728 0.964571 361.628 0.964571 361.528 0.964571H277.766C276.763 1.46614 275.76 1.86739 275.058 1.96771C274.556 2.06802 274.054 2.26865 273.553 2.36896H409.678C409.678 2.36896 409.879 2.16833 409.979 2.16833C410.28 2.16833 410.581 1.96771 410.882 2.16833L411.083 2.36896H436.863V5.57899H341.465L341.666 6.18087L341.064 5.87993C341.064 5.87993 340.863 5.87993 340.763 5.87993C340.663 5.87993 340.462 5.87993 340.462 5.87993C340.462 5.87993 340.462 5.98024 340.462 6.08055V6.28118C340.462 6.28118 340.362 6.48181 340.261 6.58212V6.78275H339.86C339.86 6.78275 339.459 6.48181 339.559 6.18087C339.559 5.98024 339.86 5.77961 340.061 5.6793H336.65C336.65 5.6793 336.449 6.28118 336.349 6.48181V6.88306H336.048C336.048 6.88306 335.847 6.78275 335.747 6.68243H335.547L335.747 6.18087C335.747 6.18087 335.948 5.77961 335.948 5.6793H267.835C267.835 5.6793 267.534 5.87993 267.434 6.08055C267.333 6.38149 267.233 6.78275 267.032 7.184H425.528C425.528 7.184 426.43 6.88306 427.032 7.08369C427.032 7.08369 427.233 7.08369 427.333 7.184H470.167C470.167 7.184 469.966 7.08369 469.866 6.88306C469.866 6.68243 469.866 6.58212 469.966 6.48181C470.167 6.28118 470.568 6.28118 470.769 6.38149C470.97 6.38149 471.07 6.68243 471.07 6.88306C471.07 7.08369 470.97 7.184 470.769 7.28431H495.346L509.49 21.4285L520.424 32.3627V73.4911H520.825C520.825 73.4911 521.528 73.2905 521.929 73.0899V53.4285H524.838V72.2874C524.838 72.2874 525.44 72.0868 526.242 72.0868V37.278C526.242 37.278 525.841 36.7765 525.841 36.5758C525.841 36.4755 525.841 36.3752 525.941 36.3752C526.042 36.3752 526.142 36.3752 526.242 36.3752L526.343 36.2749ZM297.327 6.68243C297.327 6.68243 297.127 6.68243 297.026 6.68243C296.725 6.68243 296.525 6.68243 296.324 6.48181C296.224 6.38149 296.224 6.18087 296.324 6.08055C296.324 6.08055 296.525 5.87993 296.725 5.77961C296.926 5.77961 297.327 5.77961 297.427 5.77961C297.628 5.87993 297.628 6.18087 297.628 6.28118C297.628 6.48181 297.528 6.58212 297.327 6.68243ZM442.982 6.98337C442.982 6.98337 442.782 6.98337 442.681 6.98337C442.38 6.98337 442.28 6.78275 442.18 6.58212C442.18 6.38149 442.18 6.28118 442.38 6.18087C442.581 6.08055 442.782 5.98024 442.982 6.08055C443.484 6.38149 443.484 6.58212 443.484 6.78275C443.484 6.88306 443.283 7.08369 442.982 7.08369V6.98337ZM466.656 5.6793H438.267V2.6699H466.656V5.57899V5.6793ZM468.161 5.6793V2.46927H490.631L493.741 5.57899H468.161V5.6793ZM520.424 30.0555L497.352 7.184H520.424V29.9551V30.0555ZM524.838 52.1244H521.929V51.021C521.929 51.021 521.628 51.4222 521.327 51.4222C521.327 51.4222 520.825 51.2216 520.725 51.1213C520.725 50.9206 520.725 50.6197 520.926 50.4191C521.126 50.2184 521.427 50.1181 521.628 50.2184C521.828 50.2184 521.929 50.3188 522.029 50.4191V33.767L524.938 36.6761V52.2247L524.838 52.1244Z" fill="#D38D36"/>
<path d="M525.443 73.8927C525.443 73.8927 525.042 73.8927 524.841 73.8927V81.9178H521.932V74.6952C521.932 74.6952 521.832 74.6952 521.731 74.6952C521.23 74.6952 520.828 74.7955 520.427 74.8958V100.275C520.427 100.275 520.628 100.074 520.728 100.074C520.728 100.074 521.23 100.074 521.43 100.275C521.531 100.375 521.631 100.476 521.531 100.576C521.531 100.676 521.43 100.877 521.23 100.977C521.23 100.977 521.029 100.977 520.929 100.977C520.828 100.977 520.728 100.977 520.628 100.977C520.528 100.977 520.528 100.777 520.427 100.676V179.623C520.427 179.623 520.427 179.523 520.528 179.523C520.528 179.523 520.929 179.623 521.029 179.723C521.23 179.924 521.129 180.225 521.029 180.325C521.029 180.425 520.929 180.526 520.828 180.626C520.828 180.626 520.728 180.626 520.628 180.626C520.528 180.626 520.427 180.626 520.327 180.626V247.635V247.535C520.728 247.335 521.129 247.435 521.33 247.535C521.531 247.736 521.531 247.936 521.43 248.137C521.43 248.237 521.23 248.338 521.129 248.438C521.129 248.438 521.029 248.438 520.929 248.438C520.728 248.438 520.427 248.338 520.327 248.237C520.327 248.237 520.327 248.237 520.327 248.137V260.175C520.327 260.175 520.427 260.175 520.628 260.074C521.129 260.074 521.43 260.074 521.731 260.074C521.731 260.074 521.731 260.074 521.731 260.175V254.858V233.491H524.64V261.88H521.731V260.977C521.731 260.977 521.531 261.278 521.23 261.378C520.828 261.579 520.528 261.679 520.227 261.679V283.247L508.49 294.883C508.49 294.883 508.49 295.084 508.49 295.184V295.485C508.49 295.585 508.49 295.686 508.49 295.786C508.49 295.987 508.289 295.987 508.189 295.987C508.189 296.187 507.888 296.287 507.587 296.388H507.487C507.487 296.388 507.386 296.488 507.286 296.488C507.286 296.488 507.186 296.488 507.086 296.488C507.086 296.488 506.985 296.388 506.885 296.388L495.148 308.024H324.916L320.503 300.902C320.503 300.902 320.302 300.802 320.202 300.802L319.6 300.601L320.202 300.3L319.901 299.899L318.597 300.701L323.111 308.024H320.101L316.49 302.005H303.148L300.34 297.291H264.628C264.628 296.588 264.327 295.886 264.327 295.284V294.382H261.92V295.284C262.12 295.886 261.92 296.588 261.819 297.291H238.045C238.045 297.291 238.045 298.193 238.045 298.795H261.719C261.318 299.899 260.716 300.902 259.913 302.005H233.832C233.832 302.005 233.029 302.206 232.728 302.507C232.227 302.908 231.725 303.209 231.224 303.51H258.81C256.402 306.018 253.293 307.723 250.985 307.723H250.183V308.024H221.995V308.225C221.995 308.225 221.594 308.726 221.293 309.328V309.529C221.293 309.529 220.691 310.331 220.49 310.833L222.396 314.043H219.186C219.186 314.043 218.885 314.745 218.484 315.146C218.183 315.447 218.083 315.447 217.782 315.548H223.299L226.108 320.262H238.647L238.848 320.062C238.948 320.062 239.048 320.062 239.148 319.961C239.249 319.961 239.349 319.861 239.55 319.961H239.65V320.162C239.65 320.162 239.851 320.262 239.851 320.363H261.619C261.719 321.065 262.02 321.867 262.02 322.469V323.272H264.327V322.469C264.327 321.767 264.528 321.065 264.628 320.363H300.239L303.048 315.648H316.39L320.001 309.629H323.913L326.822 314.444H426.534C426.534 314.444 426.935 314.143 427.236 314.244C427.236 314.244 427.336 314.344 427.437 314.444H490.835L495.549 309.83H495.148L493.844 309.328L493.242 309.128H495.449C495.449 309.128 495.65 309.328 495.951 309.328C496.452 309.328 497.355 309.529 498.057 309.729H521.43V284.049L525.644 279.836L525.844 279.635V74.1936H525.744C525.744 74.1936 525.242 73.993 524.941 73.8927H525.443ZM305.355 308.024H276.565V307.723H275.763C273.456 307.723 270.346 306.018 267.938 303.51H302.547L305.255 308.024H305.355ZM299.838 298.795L301.744 302.005H266.935C266.133 300.902 265.531 299.899 265.13 298.795H299.838ZM221.794 309.529H250.484V309.83H251.286C253.594 309.83 256.603 311.435 258.91 313.842C258.91 313.842 258.91 314.043 259.111 314.043H224.603L221.895 309.529H221.794ZM227.312 318.758L225.406 315.548H260.014C260.716 316.551 261.418 317.654 261.719 318.758H227.312ZM265.029 315.648V315.849L264.829 316.15C264.327 317.052 264.026 317.955 263.725 318.758C263.725 318.758 263.725 318.958 263.625 319.059C263.625 319.059 263.625 318.858 263.525 318.758C263.224 317.654 262.722 316.551 262.12 315.548C261.819 315.046 261.418 314.544 261.017 314.043C260.716 313.642 260.415 313.14 260.014 312.739C258.609 311.234 257.004 310.231 255.5 309.429C254.998 309.128 254.496 308.827 253.895 308.626C254.396 308.425 254.898 308.124 255.399 307.924C257.305 307.021 259.211 305.717 260.816 303.911C261.017 303.711 261.017 303.51 261.217 303.41C261.619 302.908 262.02 302.407 262.321 301.905C262.923 300.902 263.424 299.899 263.725 298.896C264.026 299.899 264.528 300.902 265.13 301.905C265.431 302.407 265.832 302.908 266.233 303.41C266.333 303.61 266.434 303.811 266.634 303.911C268.239 305.717 270.145 307.021 272.051 307.924C272.553 308.124 273.054 308.526 273.556 308.626C273.054 308.827 272.553 309.128 271.951 309.429C270.346 310.231 268.741 311.234 267.437 312.739C267.036 313.14 266.835 313.541 266.534 314.043C266.133 314.544 265.732 315.046 265.431 315.548L265.029 315.648ZM299.838 318.858H265.431C265.832 317.755 266.434 316.751 267.136 315.648H301.744L299.838 318.858ZM302.647 314.143H268.139C268.139 314.143 268.139 313.943 268.239 313.943C270.547 311.535 273.556 309.93 275.863 309.93H276.666V309.629H305.456L302.747 314.143H302.647ZM315.989 314.143H304.453L307.161 309.629H318.697L315.989 314.143ZM307.161 308.124L304.453 303.61H315.989L318.697 308.124H307.161ZM444.59 308.927C444.59 308.927 444.992 308.626 445.292 308.626C445.292 308.626 445.894 308.827 445.894 309.128C445.894 309.228 445.894 309.529 445.493 309.629C445.493 309.629 445.292 309.629 445.192 309.629C445.192 309.629 445.092 309.629 444.992 309.629C444.791 309.629 444.49 309.529 444.49 309.429C444.49 309.228 444.49 309.128 444.49 309.027L444.59 308.927ZM436.866 312.839H328.227L326.221 309.529H428.139C428.139 309.529 427.938 309.128 428.139 308.927C428.139 308.726 428.34 308.726 428.64 308.726C428.64 308.726 428.741 308.726 428.841 308.726C429.042 308.726 429.042 308.726 429.142 308.626C429.142 308.626 429.443 308.425 429.543 308.526H429.844C429.844 308.526 430.045 308.626 430.145 308.726V308.927C430.145 308.927 430.045 309.128 429.945 309.228C429.945 309.228 429.744 309.228 429.343 309.328C429.343 309.328 429.343 309.328 429.242 309.429H433.857C433.857 309.429 434.158 309.228 434.258 309.228C434.358 309.228 434.459 309.328 434.559 309.429H437.067V312.739L436.866 312.839ZM466.76 312.739H438.371V309.83H466.76V312.739ZM493.944 309.629L490.634 312.939H468.164V309.629H482.709C482.709 309.629 483.111 309.228 483.311 309.128C483.311 309.128 484.716 309.128 485.017 309.529H493.844L493.944 309.629ZM520.427 308.225H497.556L520.427 285.554V308.225ZM524.841 278.933L521.932 281.842V263.385H524.841V278.933ZM524.841 169.391V231.987H521.932V118.131C521.932 118.131 521.43 118.031 521.33 117.83C521.33 117.629 521.33 117.429 521.631 117.228C521.731 117.228 521.832 117.228 522.032 117.228V83.4225H524.941V167.485H525.042V168.589C525.042 168.589 525.242 168.589 525.343 168.689V169.391H524.941H524.841Z" fill="#D38D36"/>
<path d="M2.20709 139.599V88.8402C2.20709 88.8402 2.00647 88.5392 2.00647 88.4389V88.2383C2.00647 88.2383 1.70553 87.837 1.40459 87.6364H1.30427C1.30427 87.6364 0.903019 87.2351 1.10365 86.8339C1.20396 86.6333 1.5049 86.533 1.80584 86.4326C2.00647 86.4326 2.10678 86.4326 2.20709 86.5329V83.5235H5.11618V189.956C5.11618 189.956 6.11931 190.658 6.62088 191.059V142.608C6.62088 142.608 6.21963 142.809 6.11932 142.809C5.81838 142.809 5.61775 142.708 5.61775 142.408C5.61775 142.207 5.61775 142.006 5.81837 141.906C6.019 141.906 6.21963 141.906 6.42026 141.906C6.52057 141.906 6.7212 142.006 6.7212 142.107V127.561C6.7212 127.561 6.019 126.658 6.019 126.357C6.019 126.157 6.019 126.056 6.11932 126.056C6.11932 126.056 6.31994 126.056 6.42026 126.056C6.52057 126.056 6.62088 126.257 6.7212 126.357V95.5612H6.62088C6.62088 95.5612 6.019 95.3605 5.91869 95.2602C5.91869 95.0596 5.91869 94.9593 6.019 94.859C6.21963 94.7586 6.42026 94.6583 6.7212 94.6583V83.6239V55.6364C6.7212 55.6364 6.31994 55.6364 6.11932 55.6364C5.91869 55.6364 5.51743 55.4358 5.21649 55.2352V82.1192H2.20709V59.1474H2.00647C2.00647 59.1474 1.70553 59.1474 1.60521 59.1474C1.60521 59.1474 1.40459 58.9468 1.40459 58.7461C1.40459 58.4452 1.60521 58.3449 1.70553 58.2446C1.70553 58.2446 1.90615 58.1443 2.00647 58.0439C2.00647 58.0439 2.10678 58.0439 2.20709 58.0439V53.9311H3.0096C3.0096 53.9311 2.50803 53.5298 2.20709 53.2289C1.80584 52.928 1.5049 52.627 1.20396 52.4264L0.702393 52.0251V138.696C0.702393 138.696 1.70553 139.197 2.10678 139.498H2.20709V139.599Z" fill="#D38D36"/>
<path d="M117.767 2.46954H131.911V2.26892C131.911 2.26892 132.312 1.66704 132.714 1.76735C132.914 1.76735 132.914 1.86766 133.015 1.96798H133.215C133.215 1.96798 133.416 1.86766 133.616 1.96798C133.616 1.96798 133.817 1.96798 133.817 2.1686C133.817 2.26892 133.817 2.36923 133.817 2.56986C133.817 2.56986 133.616 2.56986 133.616 2.77048H217.579L217.779 2.36923V2.1686H217.98C217.98 2.1686 218.181 2.1686 218.381 2.1686H218.682C218.682 2.1686 218.682 2.56986 218.682 2.77048H252.087C252.087 2.77048 252.789 2.56986 252.989 2.56986C252.989 2.56986 252.989 2.77048 253.09 2.77048H270.143C270.143 2.77048 270.344 2.67017 270.444 2.56986L274.958 0.964844H117.165C117.165 0.964844 117.366 1.46641 117.366 1.66704C117.366 1.86766 117.466 2.1686 117.767 2.46954ZM165.616 1.16547C165.616 1.16547 166.018 1.06516 166.218 1.16547C166.419 1.16547 166.62 1.16547 166.72 1.16547C167.121 0.964844 167.322 1.16547 167.422 1.16547C167.623 1.3661 167.422 1.66704 167.422 1.86766C167.422 2.06829 167.422 2.1686 167.322 2.36923C167.221 2.46954 167.121 2.56986 166.92 2.56986C166.519 2.56986 165.917 2.1686 165.717 1.96798C165.717 1.96798 165.717 1.46641 165.717 1.26578L165.616 1.16547Z" fill="#D38D36"/>
<path d="M2.20709 36.4758L3.81211 34.8708C3.81211 34.8708 3.81211 34.8708 3.81211 34.7705C3.81211 34.7705 3.41085 34.6701 3.41085 34.3692C3.41085 34.3692 3.41085 33.8676 3.51117 33.7673C3.51117 33.7673 4.11305 33.667 4.31367 33.7673C4.31367 33.7673 4.5143 33.7673 4.61461 33.7673H4.81524L5.11618 33.4664V34.1686C5.11618 34.1686 5.41712 34.1686 5.41712 34.4695C5.41712 34.6701 5.31681 34.7705 5.11618 34.8708V51.924H2.50803C3.41085 52.4256 4.31367 53.0275 5.11618 53.4287H5.2165C5.2165 53.4287 5.91869 53.83 6.11932 53.9303C6.31994 53.9303 6.52057 53.9303 6.7212 54.0306V51.924V50.4193C6.7212 50.4193 6.7212 50.4193 6.7212 50.5197C6.62088 50.5197 6.42026 50.5197 6.31994 50.5197C6.11932 50.5197 5.91869 50.5197 5.81838 50.319C5.81838 50.319 5.51744 50.1184 5.51744 49.9178C5.51744 49.7171 5.61775 49.5165 5.81838 49.4162C5.81838 49.4162 5.81838 49.2156 5.81838 49.1153C5.81838 49.015 6.019 48.9146 6.21963 48.9146C6.42026 48.9146 6.7212 48.9146 6.92182 49.3159V31.9617L31.7995 7.08396H40.7274C40.7274 7.08396 40.6271 6.88333 40.7274 6.68271C40.9281 6.18114 41.5299 6.28145 41.7306 6.38177C42.0315 6.38177 42.2321 6.68271 42.2321 6.88333C42.2321 6.88333 42.1318 6.98365 42.1318 7.08396H227.11V6.88333C227.21 6.68271 227.411 6.68271 227.511 6.58239C227.712 6.58239 227.912 6.58239 228.013 6.78302C228.113 6.88333 228.113 6.98365 228.013 7.08396H265.229C265.229 7.08396 265.229 6.48208 265.229 6.18114C265.229 5.98051 265.229 5.77989 265.229 5.57926H257.505C257.505 5.57926 257.404 5.8802 257.204 5.98051C257.003 6.08083 256.802 6.18114 256.502 6.18114C256.401 6.18114 256.301 6.18114 256.201 6.18114H256C256 6.18114 255.398 6.08083 255.298 5.77989H255.097C255.097 5.77989 255.097 5.77989 254.997 5.67957H90.2822V2.46954H116.464C116.464 2.46954 115.962 1.86766 115.962 1.56672C115.962 1.26578 115.862 1.06516 115.662 0.964844H57.9813C57.9813 0.964844 58.5832 1.16547 58.6835 1.26578V1.56672C58.6835 1.56672 57.6804 1.76735 57.4798 1.76735C57.0785 1.76735 56.9782 1.76735 56.8779 1.76735H56.7776C56.7776 1.76735 56.577 1.96798 56.577 2.06829C56.577 2.06829 56.577 2.36923 56.577 2.46954H58.8842V5.57926H33.3042L36.414 2.46954H55.2729C55.2729 2.46954 55.2729 2.06829 55.2729 1.96798V1.76735C55.2729 1.76735 55.4735 1.06516 55.7744 0.964844H35.7118L31.0973 5.57926H5.11618V24.1372L5.81838 23.736H6.019L6.21963 23.435H6.31994C6.31994 23.435 6.52057 23.435 6.62088 23.5354V7.08396H29.693L19.2604 17.5166C19.2604 17.5166 19.6616 17.4162 19.8622 17.5166C20.2635 17.8175 20.0629 18.2187 19.8622 18.4194C19.5613 18.9209 19.2604 19.0213 19.0597 19.0213H18.8591C18.8591 19.0213 18.5582 18.9209 18.5582 18.7203C18.5582 18.62 18.5582 18.5197 18.5582 18.4194V18.2187L6.62088 29.9554V24.8394H6.21963L6.62088 24.4382V24.2375C6.62088 24.2375 6.31994 24.1372 6.21963 24.1372H5.11618V31.4601L0.903019 35.6733L0.702393 35.8739V48.6137L0.802706 48.8143C0.802706 49.0149 0.802706 49.1153 0.702393 49.1153V50.9209C0.702393 50.9209 1.40459 51.4225 2.20709 51.924V36.5761V36.4758ZM60.3889 2.67017H88.7775V5.57926H60.3889V2.67017Z" fill="#D38D36"/>
<path d="M2.20951 187.649V161.869H2.10919C2.10919 161.869 1.90857 161.367 1.90857 161.267V160.565L2.20951 160.966V141.003C1.50731 140.602 1.00575 140.301 0.704806 140.101V181.53C0.704806 181.53 0.704806 181.53 0.805119 181.53C1.20637 181.731 1.30669 181.931 1.30669 182.232C1.30669 182.633 1.10606 183.035 0.805119 183.235C0.805119 183.235 0.704806 183.336 0.604492 183.336V186.646C0.604492 186.646 1.00575 186.847 1.30669 187.047C1.60763 187.248 1.80825 187.449 2.10919 187.649H2.20951Z" fill="#D38D36"/>
</svg>
