<svg width="530" height="318" viewBox="0 0 530 318" fill="none" xmlns="http://www.w3.org/2000/svg">
<path d="M7.7254 100.452H7.12352L7.52478 100.05L7.62509 99.8498C7.62509 99.8498 7.22384 99.6492 7.12352 99.6492H6.2207V109.981V125.229C6.2207 125.229 6.2207 125.028 6.42133 124.928C6.42133 124.928 6.42133 124.728 6.42133 124.627C6.42133 124.527 6.62196 124.427 6.82258 124.427C7.02321 124.427 7.52478 124.427 7.7254 125.129V100.251V100.452Z" fill="#D38D36"/>
<path d="M6.51923 126.032C6.51923 126.032 6.3186 125.832 6.3186 125.731V129.242C6.3186 129.242 6.82017 129.543 7.0208 129.543C7.32174 129.543 7.62268 129.543 7.8233 129.644V125.731C7.8233 125.731 7.8233 126.032 7.52236 126.133C7.42205 126.133 7.22142 126.133 7.12111 126.133C6.92048 126.133 6.71986 126.133 6.61954 125.932L6.51923 126.032Z" fill="#D38D36"/>
<path d="M6.21732 265.468C6.21732 265.468 7.12014 266.17 7.72202 266.572V235.174L21.0637 258.246L16.9508 272.29C16.9508 272.29 17.2518 272.49 17.4524 272.59C17.8537 272.791 18.0543 272.992 18.2549 273.092L22.0668 259.951L34.2048 280.916L32.0982 283.023H32.2988C32.2988 283.023 32.4994 283.023 32.7001 283.023C33.001 283.023 33.4022 283.023 34.2048 283.123L35.1076 282.221L35.7094 283.324C35.7094 283.324 36.6123 283.324 36.9132 283.324C37.1138 283.324 37.3145 283.324 37.5151 283.324L7.72202 232.164V203.174C7.22045 202.672 6.8192 202.17 6.8192 201.87C6.8192 201.669 6.8192 201.569 6.91951 201.569C6.91951 201.569 7.12014 201.569 7.22045 201.569C7.42108 201.569 7.6217 201.87 7.72202 202.07V170.973C7.72202 170.973 7.72202 170.973 7.62171 170.973H7.42108C7.42108 170.973 6.8192 170.873 6.71888 170.672C6.71888 170.471 6.71888 170.371 6.8192 170.271C7.01982 170.171 7.22045 169.97 7.52139 170.07C7.52139 170.07 7.52139 170.171 7.72202 170.271V131.149C7.72202 131.149 7.12014 131.149 6.91951 131.149C6.71888 131.149 6.41794 130.948 6.21732 130.848V229.857L1.70322 222.233V215.913C1.70322 215.913 1.50259 215.813 1.50259 215.713C1.50259 215.612 1.20165 215.512 1.10134 215.412C0.800395 215.312 0.499455 215.111 0.399141 214.81C0.399141 214.81 0.298828 214.81 0.298828 214.71V222.534L6.31763 232.666V265.569L6.21732 265.468ZM6.61857 217.318C6.61857 217.318 7.01982 217.318 7.22045 217.318C7.42108 217.318 7.52139 217.418 7.52139 217.518C7.62171 217.719 7.52139 217.92 7.52139 217.92C7.42108 218.12 7.12014 218.12 6.91951 218.12C6.61857 218.12 6.41794 218.02 6.41794 217.719C6.41794 217.518 6.41794 217.318 6.61857 217.217V217.318Z" fill="#D38D36"/>
<path d="M8.62573 300.879L9.82949 300.678C9.82949 300.678 10.0301 300.678 10.1304 300.678H10.2307L17.7543 274.697C17.7543 274.697 16.9517 273.995 16.5505 273.594L8.62573 300.879Z" fill="#D38D36"/>
<path d="M143.649 1.74423H167.423C167.423 1.74423 167.423 1.74423 167.423 1.64392C167.624 1.24266 167.524 1.14235 167.423 1.04204C167.423 1.04204 167.223 0.941724 167.022 0.941724C166.821 0.941724 166.721 0.941724 166.621 1.04204H166.32C166.32 1.04204 166.119 1.04204 166.019 1.04204C165.919 1.04204 165.818 1.04204 165.718 1.04204H165.216V0.640784C165.216 0.640784 165.517 0.440157 165.517 0.339844H144.151C144.151 0.339844 143.85 0.741097 143.649 0.841411L143.448 1.04204H143.348C143.348 1.04204 143.549 1.5436 143.549 1.74423H143.649Z" fill="#D38D36"/>
<path d="M417.505 13.9818H422.22C421.117 13.7812 419.311 13.8815 417.505 13.9818Z" fill="#D38D36"/>
<path d="M168.125 1.7445H186.784C186.784 1.7445 186.784 1.44356 186.984 1.24294C187.185 1.04231 187.486 0.841683 187.787 0.841683C187.987 0.841683 188.188 0.841683 188.188 1.04231V1.24294H188.088C188.088 1.24294 187.787 1.54388 187.686 1.64419C187.686 1.64419 187.686 1.84482 187.686 1.94513H227.511C227.511 1.94513 228.213 1.84482 228.414 1.7445C229.015 1.54388 229.216 1.04231 229.316 0.44043H168.125C168.125 0.44043 168.326 0.540743 168.426 0.641056V0.841683C168.426 0.841683 168.426 1.04231 168.426 1.14262V1.44356L168.025 1.84482L168.125 1.7445Z" fill="#D38D36"/>
<path d="M527.447 149.507V222.033L522.932 229.657V193.745H522.832C522.832 193.745 522.23 193.645 522.13 193.444C522.13 193.243 522.13 193.043 522.431 192.842C522.632 192.742 522.832 192.842 523.033 192.842V150.209C523.033 150.209 522.832 150.309 522.632 150.309C522.23 150.309 521.929 150.41 521.528 150.51V175.789C521.528 175.789 522.03 175.789 522.23 175.99C522.331 176.09 522.431 176.19 522.331 176.291C522.331 176.391 522.23 176.591 522.03 176.692C522.03 176.692 521.829 176.692 521.729 176.692C521.628 176.692 521.528 176.692 521.428 176.692V232.466L519.121 236.378C519.121 236.378 519.321 236.579 519.321 236.679C519.321 236.779 519.522 236.779 519.622 236.88C519.622 236.88 519.722 236.88 520.023 236.88C520.124 236.88 520.324 236.88 520.625 236.88L521.428 235.576V255.337C521.428 255.337 521.829 255.438 521.929 255.538C522.13 255.739 522.03 256.04 521.929 256.14C521.929 256.24 521.829 256.341 521.729 256.441C521.729 256.441 521.628 256.441 521.528 256.441H521.428V304.391L508.086 258.547L520.124 237.682H520.023C520.023 237.682 519.622 237.783 519.422 237.883H519.121C519.121 237.883 518.619 237.682 518.519 237.482L495.547 277.105C495.547 277.105 495.948 276.604 496.349 276.604C496.55 276.604 496.65 276.704 496.751 276.805C496.751 276.905 496.751 277.105 496.751 277.206C496.751 277.306 496.65 277.406 496.55 277.406C496.55 277.406 496.55 277.707 496.45 277.808C496.45 277.808 496.45 278.309 496.45 278.51C496.45 278.61 496.349 278.911 496.149 278.911C496.149 278.911 495.848 278.811 495.848 278.71C495.848 278.71 495.647 278.309 495.748 278.209C495.748 278.209 495.748 277.908 495.748 277.707C495.748 277.707 495.647 277.306 495.748 277.206L477.29 309.105H444.889C444.889 309.105 444.688 309.105 444.588 309.105H444.387H437.365C437.365 309.105 437.165 309.306 437.064 309.306C436.964 309.306 436.763 309.306 436.563 309.306C436.462 309.306 436.462 309.306 436.362 309.306H370.356C370.356 309.306 370.256 309.306 370.155 309.306H317.892L312.575 303.889H283.886C283.886 303.889 283.685 303.889 283.585 303.889C283.484 303.889 283.384 303.889 283.284 303.889H90.4815C90.4815 303.889 90.3812 303.989 90.2809 303.989C89.98 303.989 89.98 303.989 89.98 303.989C89.98 303.989 89.98 304.29 89.8796 304.391C89.679 304.692 89.3781 304.692 89.2778 304.692C89.2778 304.692 88.6759 304.491 88.5756 304.29C88.5756 304.19 88.5756 303.989 88.5756 303.889C88.6759 303.889 88.7762 303.889 88.8765 303.889H88.9768C88.9768 303.889 88.9768 303.789 88.9768 303.688H48.9518L38.3186 285.331C38.3186 285.331 37.9173 285.331 37.6164 285.331C37.2151 285.331 36.9142 285.331 36.5129 285.331L42.7324 296.065L9.92989 308.002L22.5694 295.362C22.5694 295.362 22.2684 295.362 22.1681 295.262C22.0678 295.162 21.9675 294.961 22.0678 294.66C22.0678 294.56 22.0678 294.46 22.2684 294.359C22.4691 294.259 22.6697 294.359 22.77 294.359C23.0709 294.359 23.1713 294.66 23.1713 294.761L32.701 285.231C32.701 285.231 32.4001 285.231 32.2998 285.231C31.7982 285.131 31.4973 284.93 31.096 284.729L8.5255 307.3L10.1305 301.783L8.72612 301.482L7.8233 304.692V268.88C7.8233 268.88 7.52236 268.679 7.42205 268.579C6.82017 268.278 6.61954 267.977 6.3186 267.676V310.61H16.3499C16.3499 310.61 16.8515 310.409 17.0521 310.51C17.0521 310.51 17.0521 310.51 17.1524 310.61H178.155C178.155 310.61 178.356 310.209 178.456 310.109C178.657 309.908 179.259 310.008 179.359 310.008C179.359 310.008 179.76 310.409 179.76 310.71H250.682C250.682 310.71 250.782 310.51 250.883 310.51H251.083C251.083 310.51 251.284 310.309 251.384 310.309C251.484 310.309 251.585 310.209 251.685 310.209C251.685 310.209 251.986 310.209 252.086 310.309C252.187 310.409 252.387 310.51 252.588 310.51C252.688 310.51 252.789 310.71 252.789 310.811H258.105C258.105 310.811 257.704 310.61 257.704 310.51C257.704 310.409 257.704 310.309 257.704 310.209C257.704 310.209 257.804 309.808 258.005 309.808C258.005 309.808 258.205 309.808 258.306 309.808C258.506 309.908 258.707 310.109 258.807 310.41C258.807 310.41 258.807 310.61 258.807 310.71H317.491L324.312 317.632H444.788L444.989 317.431C444.989 317.431 445.892 317.431 446.393 317.632H474.28L478.193 310.811H523.133V233.269L529.052 223.237V149.808C528.349 149.908 527.748 150.109 527.647 150.109L527.447 149.507ZM506.983 260.052L509.591 269.08C509.591 269.08 509.791 269.08 509.892 269.08C510.193 269.181 510.193 269.381 510.092 269.783C510.092 269.983 509.892 270.084 509.791 270.084L520.525 306.798L504.475 290.748C504.475 290.748 504.174 290.748 504.074 290.748C503.973 290.748 503.773 290.748 503.672 290.748C503.472 290.648 503.271 290.547 503.271 290.247C503.271 290.247 503.271 289.845 503.271 289.645L494.744 281.118L506.882 260.152L506.983 260.052ZM494.042 282.422L508.688 297.068C508.688 297.068 508.588 296.867 508.688 296.667C508.688 296.466 508.889 296.366 508.989 296.366C508.989 296.366 509.29 296.466 509.491 296.566H509.691C509.691 296.566 509.892 296.767 509.992 296.967C509.992 297.168 509.992 297.168 509.992 297.268C509.992 297.268 510.092 297.469 510.092 297.569C510.092 297.569 510.092 297.77 510.092 297.971C510.092 297.971 509.992 298.071 509.892 298.071L519.422 307.601L499.359 300.278C499.359 300.278 499.559 300.478 499.459 300.679C499.459 300.88 499.259 300.88 499.158 300.98C499.158 301.08 498.958 301.181 498.958 301.181C498.958 301.181 498.857 301.181 498.757 301.181C498.757 301.181 498.657 301.181 498.556 301.181H498.356H498.155C498.155 301.181 497.954 301.08 497.954 300.98C497.954 300.779 497.954 300.679 498.055 300.579C498.055 300.579 498.255 300.278 498.356 300.278L486.418 295.864L494.042 282.623V282.422ZM237.441 308.704C237.441 308.704 237.441 309.105 237.441 309.206V309.406H237.24V309.607C237.24 309.607 236.738 309.406 236.638 309.306C236.638 309.206 236.438 309.005 236.337 309.005H236.036C236.036 309.005 235.635 308.804 235.535 308.804H222.293L221.09 309.808L221.792 308.804H138.532C138.231 309.406 137.93 309.507 137.729 309.507H137.529C137.328 309.507 137.228 309.406 137.228 309.206C137.228 309.105 137.228 309.005 137.228 308.905H11.234L43.4346 297.068L47.748 304.591L47.9487 304.993H258.807L258.607 304.792C258.607 304.792 258.306 304.692 258.306 304.491C258.306 304.29 258.306 304.09 258.707 303.989C258.908 303.989 259.309 303.989 259.71 303.989C259.71 303.989 259.911 303.789 260.111 303.789H260.312C260.312 303.789 260.312 303.588 260.513 303.488C260.613 303.488 260.814 303.488 260.914 303.488C261.014 303.488 261.215 303.588 261.215 303.889C261.315 304.29 261.215 304.692 260.814 304.892C260.613 305.093 260.412 304.892 260.312 304.892C260.312 304.892 260.111 304.892 260.011 304.892C259.811 304.892 259.71 304.892 259.51 304.892H267.735C267.735 304.892 267.735 304.692 267.735 304.591L267.936 304.29L268.237 304.591C268.237 304.591 268.437 304.591 268.538 304.591C268.738 304.591 268.939 304.591 268.939 304.29V303.688L269.34 303.989L269.641 304.19L269.842 304.391L269.641 304.591V304.792H269.441C269.441 304.792 269.441 304.892 269.34 304.993H311.973L315.785 308.804H237.541L237.441 308.704ZM316.287 309.808H316.187V310.109H315.785L315.585 309.908L314.682 309.507H316.488L316.187 309.908L316.287 309.808ZM473.177 315.525H324.713L319.397 310.209H333.24C333.24 310.209 333.24 310.209 333.34 310.209H447.196C447.196 310.209 447.196 310.008 447.196 309.908C447.196 309.808 447.497 309.507 447.798 309.607C447.998 309.607 448.099 309.808 448.099 309.908H448.299C448.299 309.908 448.6 310.008 448.6 310.209H475.986L472.876 315.525H473.177ZM500.362 308.704C500.362 308.704 500.362 308.905 500.362 309.005C500.161 309.206 499.961 309.306 499.76 309.306C499.76 309.306 499.66 309.306 499.559 309.306C499.259 309.206 499.058 309.005 499.058 308.804H497.553C497.553 308.804 497.654 308.804 497.754 308.804C497.854 309.005 497.854 309.206 497.754 309.306C497.553 309.507 497.252 309.607 496.951 309.607H496.751C496.45 309.607 496.249 309.306 496.249 309.005C496.249 308.905 496.249 308.804 496.349 308.704H478.895L485.716 296.967L517.917 308.704H500.462H500.362Z" fill="#D38D36"/>
<path d="M522.933 83.7003V6.15802H454.219C454.219 6.15802 454.419 6.25833 454.419 6.35865C454.419 6.55927 454.419 6.7599 454.118 6.86021C454.018 6.86021 453.817 6.96053 453.717 6.96053C453.416 6.96053 453.216 6.86021 453.115 6.55927C453.115 6.45896 453.115 6.25833 453.115 6.15802H318.394L312.576 0.339844H230.72V0.640784C230.72 0.640784 230.42 1.5436 229.918 1.84454H311.974L316.288 6.15802H223.498C223.498 6.15802 223.297 6.45896 223.197 6.65959C222.996 7.06084 222.996 7.26147 222.996 7.66272H317.792L324.213 14.0828H411.886C412.89 13.6815 413.993 13.3806 414.896 13.2803C416.701 13.0796 419.911 12.879 421.817 12.879H422.219C423.623 12.879 423.824 13.0796 424.225 13.3806C424.325 13.4809 424.526 13.5812 424.727 13.6815C425.228 13.8821 425.328 13.9825 425.529 13.9825H473.379C473.379 13.9825 472.676 13.9825 472.576 13.7818C472.375 13.4809 472.375 13.18 472.576 12.9793C472.777 12.7787 473.078 12.6784 473.379 12.7787C473.679 12.879 473.98 13.18 473.98 13.5812C473.98 13.7818 473.98 13.9825 473.78 14.0828H480.601V13.6815L484.413 20.2019C484.413 20.2019 484.413 20.1016 484.614 20.0013C484.714 20.0013 484.814 20.0013 484.915 20.0013C485.416 20.0013 485.717 20.2019 485.817 20.4025C485.817 20.5028 485.717 20.7035 485.516 20.9041C485.516 20.9041 485.516 21.1047 485.416 21.1047C485.316 21.1047 485.216 21.1047 485.115 21.1047L521.529 83.9009V148.804H521.73C521.73 148.804 522.532 148.603 523.134 148.402V126.033C523.134 126.033 522.733 126.534 522.331 126.534C522.331 126.534 521.83 126.333 521.73 126.233C521.73 126.033 521.73 125.732 521.93 125.531C522.131 125.33 522.432 125.23 522.632 125.33C522.933 125.33 523.134 125.631 523.234 125.732V86.6094L527.748 94.6344V111.587C527.748 111.587 527.949 111.487 528.049 111.286C528.049 111.286 528.25 110.985 528.451 110.985H528.551C528.551 110.985 528.752 110.985 528.852 110.985C528.952 110.985 529.052 110.985 529.153 110.985V94.1329L523.134 83.3993L522.933 83.7003ZM345.178 6.25833H345.278C345.278 6.25833 345.579 6.15802 345.78 6.15802C345.981 6.15802 346.081 6.35865 346.081 6.45896C346.081 6.65959 345.981 6.86021 345.78 7.06084C345.68 7.16115 345.479 7.36178 345.178 7.36178H345.078C345.078 7.36178 344.576 7.16115 344.576 6.86021C344.576 6.45896 344.777 6.35865 345.178 6.35865V6.25833ZM451.41 12.4778C451.41 12.4778 451.41 12.4778 451.41 12.6784C451.41 12.879 451.109 12.879 451.009 12.9793C451.009 12.9793 450.808 12.9793 450.708 12.9793C450.507 12.9793 450.407 12.9793 450.106 12.7787C450.106 12.7787 449.905 12.6784 449.805 12.6784C449.705 12.6784 449.604 12.6784 449.504 12.4778H355.209L355.51 12.6784L355.31 12.879V13.2803L354.608 12.879V12.4778H326.921C326.921 12.4778 326.72 12.4778 326.52 12.4778C326.419 12.4778 326.319 12.4778 326.219 12.3774H324.814L319.899 7.46209H400.049C400.049 7.46209 400.049 7.16115 400.15 7.06084C400.451 6.86021 400.651 6.7599 400.852 6.86021C401.053 6.86021 401.153 7.06084 401.153 7.36178C401.153 7.36178 401.153 7.36178 401.153 7.46209H417.404C417.404 7.46209 417.002 7.26147 417.002 7.06084C417.002 6.86021 417.203 6.7599 417.303 6.65959H417.504C417.504 6.65959 418.006 6.25833 418.307 6.35865H418.607C418.607 6.35865 419.009 6.55927 419.31 6.65959C419.31 6.65959 420.212 7.06084 420.413 7.36178H477.09L479.899 12.2771H451.31L451.41 12.4778ZM478.896 7.56241H517.918L485.717 19.2991L478.896 7.56241ZM519.222 8.66585L513.203 14.6847C513.203 14.6847 513.404 14.6847 513.504 14.785C513.504 14.785 513.504 15.1862 513.504 15.2865C513.303 15.4872 513.002 15.5875 512.701 15.5875H512.501C512.501 15.5875 512.501 15.5875 512.501 15.4872L497.955 30.0326C497.955 30.0326 498.156 29.832 498.357 29.9323C498.658 29.9323 498.758 30.2332 498.758 30.3335C498.758 30.5342 498.658 30.7348 498.357 31.0357C498.256 31.0357 498.056 31.136 497.955 31.136C497.755 31.136 497.654 31.136 497.454 30.9354C497.454 30.9354 497.454 30.7348 497.454 30.6345L494.244 33.8445L486.62 20.6031L519.422 8.66585H519.222ZM520.626 9.36805L506.984 56.1141L494.846 35.1486L520.626 9.36805ZM521.429 12.0765V80.9918L508.087 57.9197L521.429 12.0765ZM520.927 81.9949H520.726C520.726 81.9949 520.325 81.7943 520.225 81.5937C520.225 81.3931 520.225 81.1924 520.325 80.9918C520.526 80.7912 520.726 80.6909 521.027 80.7912C521.328 80.7912 521.328 81.0921 521.429 81.2927L521.629 81.4934C521.629 81.4934 521.529 81.4934 521.429 81.5937C521.328 81.694 521.228 81.8946 520.927 81.8946V81.9949Z" fill="#D38D36"/>
<path d="M528.352 112.19C528.352 112.19 528.352 112.491 528.151 112.592C528.151 112.592 528.251 112.792 528.151 112.893C528.151 112.993 528.051 113.093 527.95 113.093C527.95 113.093 527.85 113.093 527.75 113.093C527.75 113.093 527.549 113.093 527.449 112.993V147.601C527.449 147.601 527.449 147.601 527.649 147.601H527.85C527.85 147.601 528.552 147.601 528.953 147.601V134.46C528.953 134.46 528.652 134.46 528.552 134.36C528.552 134.36 528.452 134.159 528.552 133.958C528.552 133.958 528.452 133.958 528.352 133.858V133.557C528.352 133.557 528.753 133.356 528.953 133.256C528.953 133.256 528.953 133.256 529.054 133.256V111.889C529.054 111.889 528.753 111.99 528.452 112.09L528.352 112.19Z" fill="#D38D36"/>
<path d="M0.401555 124.127C0.401555 124.127 0.702495 123.926 1.10375 123.926C1.30438 123.926 1.60532 123.926 1.70563 124.127L1.80594 124.327V94.7347L6.32004 86.7097V99.4495L6.82161 99.1485H7.02224L7.22286 98.8476H7.32318C7.32318 98.8476 7.52381 98.8476 7.62412 98.9479C7.62412 98.9479 7.62412 98.9479 7.72443 98.9479V83.9009L41.4297 26.7223H40.6272L41.3294 26.2207C41.3294 26.2207 41.53 26.0201 41.7307 26.0201L47.9501 15.3869C47.9501 15.3869 47.7495 15.3869 47.6492 15.3869C47.6492 15.3869 47.4485 14.9856 47.4485 14.8853C47.4485 14.8853 47.4485 14.484 47.6492 14.3837H47.8498C47.8498 14.3837 48.1507 14.1831 48.251 14.1831C48.3514 14.1831 48.552 14.1831 48.6523 14.1831L48.8529 14.3837L52.3639 8.36491C52.3639 8.36491 51.9626 8.06397 51.9626 7.96366C51.9626 7.96366 51.9626 7.86335 51.9626 7.76303C51.9626 7.76303 51.8623 7.76303 51.762 7.66272C51.762 7.66272 51.762 7.36178 51.762 7.26147C51.762 7.26147 51.762 7.16115 51.762 7.06084C51.762 7.06084 51.762 6.86021 51.8623 6.7599C51.8623 6.7599 52.0629 6.7599 52.1633 6.7599C52.3639 6.7599 52.3639 6.7599 52.5645 6.7599H52.6648C52.6648 6.7599 52.9658 6.86021 53.0661 6.96053H53.2667C53.2667 6.96053 53.8686 7.16115 53.8686 7.36178V7.56241H144.151C144.151 7.56241 143.95 7.46209 143.85 7.46209C143.448 7.46209 143.248 7.46209 143.148 7.26147C143.148 7.16115 143.148 7.06084 143.148 6.96053C143.348 6.65959 144.351 6.35865 144.552 6.45896C144.652 6.45896 145.354 6.7599 145.455 7.16115C145.455 7.46209 145.154 7.56241 144.853 7.66272H221.593C221.593 7.66272 221.593 7.16115 221.593 6.96053C221.593 6.7599 221.793 6.55927 221.693 6.35865C221.693 6.35865 221.693 6.25833 221.693 6.15802H179.662C179.662 6.15802 179.963 6.25833 180.063 6.35865H180.163C180.163 6.35865 180.464 6.45896 180.564 6.65959V6.86021C180.564 6.86021 180.564 6.96053 180.564 7.06084C180.464 7.26147 180.063 7.26147 179.862 7.26147C179.662 7.26147 179.662 7.26147 179.461 7.26147H179.16C179.16 7.26147 178.558 6.96053 178.558 6.7599C178.558 6.7599 178.558 6.55927 178.859 6.45896C178.859 6.45896 178.859 6.35865 179.06 6.25833H153.68C153.68 6.25833 153.881 6.55927 153.881 6.7599C153.881 6.7599 153.881 6.96053 153.781 6.96053C153.781 6.96053 153.981 6.96053 154.082 7.16115V7.46209C154.082 7.46209 153.68 7.66272 153.48 7.66272C153.379 7.66272 153.279 7.66272 153.179 7.66272C153.079 7.66272 152.778 7.46209 152.778 7.06084C152.778 6.96053 152.778 6.86021 152.878 6.7599L152.677 6.55927C152.677 6.55927 152.677 6.45896 152.677 6.35865H82.0566C82.0566 6.35865 82.0567 6.55927 81.856 6.55927C81.856 6.55927 81.6554 6.55927 81.5551 6.55927H53.668L56.1758 2.14548H88.1758C88.1758 2.14548 88.1758 1.64392 88.577 1.5436C88.878 1.5436 89.0786 1.34298 89.2792 1.5436C89.3795 1.74423 89.2792 1.84454 89.2792 1.94486H142.646C142.646 1.94486 142.546 1.94486 142.345 1.94486H142.245C142.245 1.94486 141.944 1.74423 141.944 1.64392C141.944 1.64392 141.944 1.64392 141.843 1.64392C141.743 1.64392 141.643 1.64392 141.442 1.64392C141.242 1.64392 141.141 1.64392 141.041 1.64392C140.539 1.5436 140.539 1.24266 140.539 1.14235C140.539 0.941724 140.74 0.841411 141.041 0.741097H141.342C141.342 0.741097 141.743 0.741097 142.044 0.741097C142.245 0.741097 142.345 0.741097 142.445 0.741097C142.646 0.741097 142.646 0.741097 142.746 0.741097L142.947 0.54047H80.7526C80.7526 0.54047 80.5519 0.640784 80.3513 0.640784H80.1507C80.1507 0.640784 79.8498 0.640784 79.5488 0.741097C79.4485 0.741097 79.4485 0.741097 79.3482 0.741097C79.3482 0.741097 79.1476 0.841411 79.0472 0.841411C79.0472 0.841411 78.2447 0.841411 78.1444 0.440157C78.1444 0.440157 78.1444 0.440157 78.1444 0.339844H55.273L51.8623 6.15802H36.715C36.715 6.15802 37.0159 6.35865 36.9156 6.55927C36.9156 6.86021 36.5144 6.96053 36.3137 6.96053C36.3137 6.96053 35.8122 6.7599 35.7119 6.55927C35.7119 6.45896 35.7119 6.25833 35.8122 6.15802H6.21973V75.2739L6.82161 74.7724L6.21973 75.6752V83.7003L3.61158 88.3147C3.61158 88.3147 4.01284 88.3147 4.21346 88.3147H4.41409C4.41409 88.3147 4.71503 88.415 4.81534 88.6156C5.01597 88.8162 4.91566 89.1172 4.91566 89.2175C4.91566 89.4181 4.71503 89.4181 4.41409 89.5184C4.31378 89.5184 4.01284 89.5184 4.01284 89.6187C3.81221 89.8194 3.61158 90.02 3.41096 90.02H3.21033C3.11002 90.02 3.0097 89.7191 3.0097 89.6187L0.200928 94.4338V106.07C0.200928 106.07 0.602181 106.471 0.602181 106.672C0.602181 106.973 0.602181 107.174 0.200928 107.274V124.227H0.401555V124.127ZM7.72443 81.0921V12.1768L10.4329 21.4057C10.4329 21.4057 10.8341 21.4057 11.0348 21.6063C11.3357 21.8069 11.436 22.0075 11.436 22.2082C11.436 22.5091 11.0348 22.7097 10.8341 22.7097L21.1664 58.321L7.72443 81.1924V81.0921ZM22.1696 56.5153L20.7652 51.7003H20.4642C20.4642 51.7003 20.2636 51.7003 20.063 51.7003C20.063 51.7003 19.762 51.3994 19.762 51.299C19.762 50.9981 20.1633 51.0984 20.2636 51.0984C20.4642 51.0984 20.4642 51.0984 20.4642 51.0984L19.6617 48.1893V47.9887L15.0473 32.2395C15.0473 32.2395 14.7464 32.2395 14.6461 32.2395H14.4454C14.4454 32.2395 14.0442 31.7379 14.0442 31.5373C14.0442 31.3367 14.1445 31.2364 14.3451 31.2364H14.5457H14.7464L8.52694 9.46836L34.5081 35.4495L22.1696 56.5153ZM35.3106 34.1455L9.93133 8.76617L14.8467 10.5718C14.8467 10.5718 15.0473 10.4715 15.1476 10.5718C15.2479 10.5718 15.4486 10.7724 15.5489 10.9731L43.1351 21.0044L35.3106 34.3461V34.1455ZM50.9595 7.66272L43.9376 19.6L11.2354 7.66272H50.9595Z" fill="#D38D36"/>
<path d="M1.70533 214.31V127.237L1.20376 126.736L1.5047 126.335L1.70533 126.535V124.429C1.70533 124.429 1.70533 124.629 1.60501 124.73C1.5047 124.93 1.10345 125.131 0.90282 125.131H0.802507C0.802507 125.131 0.401253 124.83 0.30094 124.629V145.194C0.30094 145.194 0.702194 144.993 0.90282 145.194C0.90282 145.194 1.30407 145.194 1.40439 145.394C1.40439 145.394 1.40439 145.595 1.40439 145.795C1.30407 146.096 1.20376 146.197 1.00313 146.197H0.60188C0.60188 146.197 0.30094 146.397 0.200627 146.498V173.081C0.200627 173.081 0.401254 172.679 0.702194 172.579C0.702194 172.579 1.10345 172.78 1.30407 172.88C1.5047 172.98 1.5047 173.181 1.30407 173.382C1.20376 173.582 0.90282 173.683 0.702194 173.683C0.702194 173.683 0.501567 173.683 0.401253 173.683C0 173.482 0 173.181 0 173.181V213.306C0 213.306 0.501567 213.808 0.702194 213.908C0.90282 214.009 1.20376 214.209 1.5047 214.41L1.70533 214.31Z" fill="#D38D36"/>
</svg>
