<svg width="558" height="334" viewBox="0 0 558 334" fill="none" xmlns="http://www.w3.org/2000/svg">
<path d="M11.072 316.79L18.9907 289.444C18.9907 289.444 18.1461 288.705 17.7237 288.282L9.38269 317.001L10.6497 316.79C10.6497 316.79 10.8609 316.79 10.9664 316.79H11.072Z" fill="#D38D36"/>
<path d="M550.706 88.4144V6.79885H428.019L421.895 0.675049H58.3734L54.7836 6.79885H38.8406C38.8406 6.79885 39.1573 7.01002 39.0518 7.22118C39.0518 7.53793 38.6294 7.64352 38.4183 7.64352C38.4183 7.64352 37.8904 7.43235 37.7848 7.22118C37.7848 7.1156 37.7848 6.90443 37.8904 6.79885H6.84901V79.5454L7.4825 79.0175L6.84901 79.9677V88.4144L4.10385 93.2712C4.10385 93.2712 4.52618 93.2712 4.73735 93.2712H4.94852C4.94852 93.2712 5.26526 93.3768 5.37085 93.5879C5.58201 93.7991 5.47643 94.1158 5.47643 94.2214C5.47643 94.4326 5.26526 94.4326 4.94852 94.5382C4.84293 94.5382 4.52618 94.5382 4.52618 94.6438C4.31502 94.8549 4.10385 95.0661 3.89269 95.0661H3.68152C3.57594 95.0661 3.47036 94.7493 3.47036 94.6438L0.514038 99.7117V101.084V232.64V234.33L6.84901 244.994V279.625C6.84901 279.625 7.79925 280.364 8.43275 280.786V247.739L22.4753 272.023L18.1464 286.804C18.1464 286.804 18.4631 287.016 18.6743 287.121C19.0966 287.332 19.3078 287.544 19.5189 287.649L23.5311 273.818L36.3066 295.885L34.0894 298.102H34.3005C34.3005 298.102 34.5117 298.102 34.7229 298.102C35.0396 298.102 35.4619 298.102 36.3066 298.207L37.2569 297.257L37.8904 298.419C37.8904 298.419 38.8406 298.419 39.1573 298.419C39.3685 298.419 39.5797 298.419 39.7908 298.419L8.43275 244.677V88.8367L43.9086 28.4433H43.0639L43.803 27.9154C43.803 27.9154 44.0142 27.7042 44.2253 27.7042L50.7715 16.5125C50.7715 16.5125 50.5603 16.5125 50.4547 16.5125C50.4547 16.5125 50.2435 16.0901 50.2435 15.9846C50.2435 15.9846 50.2435 15.5622 50.4547 15.4566H50.6659C50.6659 15.4566 50.9826 15.2455 51.0882 15.2455C51.1938 15.2455 51.405 15.2455 51.5105 15.2455L51.7217 15.4566L55.4171 9.12167C55.4171 9.12167 54.9948 8.80493 54.9948 8.69934C54.9948 8.69934 54.9948 8.59376 54.9948 8.48818C54.9948 8.48818 54.8892 8.48818 54.7836 8.38259C54.7836 8.38259 54.7836 8.06585 54.7836 7.96026C54.7836 7.96026 54.7836 7.85468 54.7836 7.7491C54.7836 7.7491 54.7836 7.53793 54.8892 7.43235C54.8892 7.43235 55.1003 7.43235 55.2059 7.43235C55.4171 7.43235 55.4171 7.43235 55.6283 7.43235H55.7338C55.7338 7.43235 56.0506 7.53793 56.1562 7.64352H56.3673C56.3673 7.64352 57.0008 7.85468 57.0008 8.06585V8.27701H427.385L434.143 15.0343H506.467L510.162 21.4749C510.162 21.4749 510.162 21.3693 510.373 21.2637C510.479 21.2637 510.585 21.2637 510.69 21.2637C511.218 21.2637 511.535 21.4749 511.64 21.686C511.64 21.7916 511.535 22.0028 511.324 22.2139C511.324 22.2139 511.324 22.4251 511.218 22.4251C511.112 22.4251 511.007 22.4251 510.901 22.4251L549.228 88.52V156.832V158.31V184.917V185.762V244.466L546.8 248.584C546.8 248.584 547.011 248.795 547.011 248.9C547.011 249.006 547.222 249.006 547.327 249.111C547.327 249.111 547.433 249.111 547.75 249.111C547.855 249.111 548.066 249.111 548.383 249.111L549.228 247.739V268.539C549.228 268.539 549.65 268.644 549.756 268.75C549.967 268.961 549.861 269.278 549.756 269.383C549.756 269.489 549.65 269.594 549.545 269.7C549.545 269.7 549.439 269.7 549.333 269.7H549.228V320.169L535.185 271.917L547.855 249.956H547.75C547.75 249.956 547.327 250.062 547.116 250.167H546.8C546.8 250.167 546.272 249.956 546.166 249.745L521.988 291.45C521.988 291.45 522.41 290.922 522.832 290.922C523.043 290.922 523.149 291.028 523.255 291.133C523.255 291.239 523.255 291.45 523.255 291.556C523.255 291.661 523.149 291.767 523.043 291.767C523.043 291.767 523.043 292.084 522.938 292.189C522.938 292.189 522.938 292.717 522.938 292.928C522.938 293.034 522.832 293.351 522.621 293.351C522.621 293.351 522.304 293.245 522.304 293.139C522.304 293.139 522.093 292.717 522.199 292.612C522.199 292.612 522.199 292.295 522.199 292.084C522.199 292.084 522.093 291.661 522.199 291.556L502.771 325.131H163.006L157.41 319.535H51.7217L40.5299 300.214C40.5299 300.214 40.1076 300.214 39.7908 300.214C39.3685 300.214 39.0518 300.214 38.6294 300.214L45.1756 311.511L10.65 324.075L23.9534 310.772C23.9534 310.772 23.6367 310.772 23.5311 310.666C23.4255 310.561 23.3199 310.349 23.4255 310.033C23.4255 309.927 23.4255 309.822 23.6367 309.716C23.8478 309.61 24.059 309.716 24.1646 309.716C24.4813 309.716 24.5869 310.033 24.5869 310.138L34.6173 300.108C34.6173 300.108 34.3005 300.108 34.195 300.108C33.667 300.002 33.3503 299.791 32.928 299.58L9.17183 323.336L10.8612 317.529L9.38299 317.212L8.43275 320.591V282.898C8.43275 282.898 8.116 282.687 8.01042 282.581C7.37692 282.264 7.16576 281.948 6.84901 281.631V326.82H17.5129C17.5129 326.82 18.0408 326.609 18.2519 326.715C18.2519 326.715 18.252 326.715 18.3575 326.82H162.372L169.552 334H499.921V332.944L503.511 326.82H550.812V245.205L557.041 234.647V99.7117L550.812 88.4144H550.706ZM6.84901 104.991V241.932L2.09778 233.907V227.256V225.778V134.237V133.498V131.281V131.281V100.134L6.84901 91.6874V105.096V104.991ZM8.43275 85.6692V13.1338L11.2835 22.8474C11.2835 22.8474 11.7058 22.8474 11.917 23.0586C12.2337 23.2698 12.3393 23.4809 12.3393 23.6921C12.3393 24.0089 11.917 24.22 11.7058 24.22L22.5808 61.7019L8.43275 85.7748V85.6692ZM23.6367 59.8014L22.1585 54.7335H21.8418C21.8418 54.7335 21.6306 54.7335 21.4194 54.7335C21.4194 54.7335 21.1027 54.4167 21.1027 54.3111C21.1027 53.9944 21.525 54.1 21.6306 54.1C21.8418 54.1 21.8418 54.1 21.8418 54.1L20.9971 51.0381V50.8269L16.1403 34.2504C16.1403 34.2504 15.8235 34.2504 15.718 34.2504H15.5068C15.5068 34.2504 15.0845 33.7225 15.0845 33.5113C15.0845 33.3001 15.19 33.1946 15.4012 33.1946H15.6124H15.8235L9.27741 10.2831L36.6234 37.629L23.6367 59.8014V59.8014ZM37.468 36.2565L10.7556 9.54401L15.9291 11.4445C15.9291 11.4445 16.1403 11.3389 16.2459 11.4445C16.3515 11.4445 16.5626 11.6557 16.6682 11.8668L45.7035 22.4251L37.468 36.4676V36.2565ZM46.5481 20.8414L12.1281 8.38259H53.9389L46.5481 20.9469V20.8414ZM272.073 6.79885H56.6841L59.3237 2.25879H421.262L425.802 6.79885H272.073ZM12.1281 325.131L46.0202 312.778L50.5603 320.697L50.7715 321.119H156.671L160.683 325.131H12.1281ZM498.443 332.311H170.186L164.59 326.715H501.61L498.443 332.311ZM527.055 325.131C527.055 325.131 527.055 325.342 527.055 325.448C526.844 325.659 526.633 325.765 526.422 325.765C526.422 325.765 526.316 325.765 526.211 325.765C525.894 325.659 525.683 325.448 525.683 325.237H524.099C524.099 325.237 524.205 325.237 524.31 325.237C524.416 325.448 524.416 325.659 524.31 325.765C524.099 325.976 523.782 326.081 523.466 326.081H523.255C522.938 326.081 522.727 325.765 522.727 325.448C522.727 325.342 522.727 325.237 522.832 325.131H504.461L511.64 312.778L545.532 325.131H527.161H527.055ZM525.683 316.262C525.683 316.262 525.894 316.473 525.789 316.684C525.789 316.896 525.577 316.896 525.472 317.001C525.472 317.107 525.261 317.212 525.261 317.212C525.261 317.212 525.155 317.212 525.049 317.212C525.049 317.212 524.944 317.212 524.838 317.212H524.627H524.416C524.416 317.212 524.205 317.107 524.205 317.001C524.205 316.79 524.205 316.684 524.31 316.579C524.31 316.579 524.522 316.262 524.627 316.262L512.063 311.616L520.087 297.68L535.502 313.095C535.502 313.095 535.397 312.883 535.502 312.672C535.502 312.461 535.713 312.356 535.819 312.356C535.819 312.356 536.136 312.461 536.347 312.567H536.558C536.558 312.567 536.769 312.778 536.875 312.989C536.875 313.2 536.875 313.2 536.875 313.306C536.875 313.306 536.98 313.517 536.98 313.623C536.98 313.623 536.98 313.834 536.98 314.045C536.98 314.045 536.875 314.15 536.769 314.15L546.8 324.181L525.683 316.473V316.262ZM531.384 306.232C531.384 306.232 531.068 306.232 530.962 306.232C530.857 306.232 530.645 306.232 530.54 306.232C530.329 306.126 530.117 306.021 530.117 305.704C530.117 305.704 530.117 305.281 530.117 305.07L521.143 296.096L533.918 274.029L536.664 283.531C536.664 283.531 536.875 283.531 536.98 283.531C537.297 283.637 537.297 283.848 537.191 284.271C537.191 284.482 536.98 284.587 536.875 284.587L548.172 323.231L531.279 306.337L531.384 306.232ZM475.426 13.4506H434.671L429.497 8.27701H502.455L505.411 13.4506H475.32H475.426ZM511.535 20.6302L504.355 8.27701H545.427L511.535 20.6302ZM512.379 22.0028L546.905 9.43842L540.57 15.7734C540.57 15.7734 540.781 15.7734 540.887 15.879C540.887 15.879 540.887 16.3013 540.887 16.4069C540.676 16.6181 540.359 16.7236 540.042 16.7236H539.831C539.831 16.7236 539.831 16.7236 539.831 16.6181L524.522 31.9276C524.522 31.9276 524.733 31.7164 524.944 31.822C525.261 31.822 525.366 32.1387 525.366 32.2443C525.366 32.4555 525.261 32.6666 524.944 32.9834C524.838 32.9834 524.627 33.089 524.522 33.089C524.31 33.089 524.205 33.089 523.994 32.8778C523.994 32.8778 523.994 32.6666 523.994 32.5611L520.615 35.9397L512.591 22.0028H512.379ZM521.248 37.3123L548.383 10.1775L534.024 59.3791L521.248 37.3123V37.3123ZM549.228 13.0282V85.5636L535.185 61.2796L549.228 13.0282V13.0282ZM548.7 86.6195H548.489C548.489 86.6195 548.066 86.4083 547.961 86.1971C547.961 85.986 547.961 85.7748 548.066 85.5636C548.278 85.3525 548.489 85.2469 548.806 85.3525C549.122 85.3525 549.122 85.6692 549.228 85.8804L549.439 86.0916C549.439 86.0916 549.333 86.0916 549.228 86.1971C549.122 86.3027 549.017 86.5139 548.7 86.5139V86.6195ZM555.563 117.872V233.907L550.812 241.932V230.951V101.084V91.6874L555.563 100.134V117.978V117.872Z" fill="#D38D36"/>
</svg>
