<svg width="530" height="319" viewBox="0 0 530 319" fill="none" xmlns="http://www.w3.org/2000/svg">
<path d="M8.0506 100.976H7.44872L7.84997 100.575L7.95029 100.374C7.95029 100.374 7.54903 100.174 7.44872 100.174H6.5459V110.506V125.753C6.5459 125.753 6.5459 125.553 6.74653 125.453C6.74653 125.453 6.74653 125.252 6.74653 125.152C6.74653 125.051 6.94715 124.951 7.14778 124.951C7.34841 124.951 7.84997 124.951 8.0506 125.653V100.775V100.976Z" fill="#D38D36"/>
<path d="M6.84443 126.557C6.84443 126.557 6.6438 126.356 6.6438 126.256V129.767C6.6438 129.767 7.14537 130.068 7.34599 130.068C7.64693 130.068 7.94787 130.068 8.1485 130.168V126.256C8.1485 126.256 8.1485 126.557 7.84756 126.657C7.74725 126.657 7.54662 126.657 7.44631 126.657C7.24568 126.657 7.04505 126.657 6.94474 126.456L6.84443 126.557Z" fill="#D38D36"/>
<path d="M6.54251 265.993C6.54251 265.993 7.44533 266.695 8.04721 267.096V235.698L21.3889 258.77L17.276 272.814C17.276 272.814 17.577 273.015 17.7776 273.115C18.1789 273.315 18.3795 273.516 18.5801 273.616L22.392 260.475L34.5299 281.441L32.4234 283.547H32.624C32.624 283.547 32.8246 283.547 33.0252 283.547C33.3262 283.547 33.7274 283.547 34.5299 283.648L35.4328 282.745L36.0346 283.848C36.0346 283.848 36.9375 283.848 37.2384 283.848C37.439 283.848 37.6397 283.848 37.8403 283.848L8.04721 232.689V203.698C7.54565 203.196 7.14439 202.695 7.14439 202.394C7.14439 202.193 7.14439 202.093 7.24471 202.093C7.24471 202.093 7.44533 202.093 7.54565 202.093C7.74627 202.093 7.9469 202.394 8.04721 202.595V171.497C8.04721 171.497 8.04721 171.497 7.9469 171.497H7.74627C7.74627 171.497 7.14439 171.397 7.04408 171.196C7.04408 170.996 7.04408 170.896 7.14439 170.795C7.34502 170.695 7.54565 170.494 7.84659 170.595C7.84659 170.595 7.84659 170.695 8.04721 170.795V131.673C8.04721 131.673 7.44533 131.673 7.24471 131.673C7.04408 131.673 6.74314 131.472 6.54251 131.372V230.381L2.02841 222.758V216.438C2.02841 216.438 1.82778 216.337 1.82778 216.237C1.82778 216.137 1.52684 216.037 1.42653 215.936C1.12559 215.836 0.82465 215.635 0.724337 215.334C0.724337 215.334 0.624023 215.334 0.624023 215.234V223.058L6.64283 233.19V266.093L6.54251 265.993ZM6.94377 217.842C6.94377 217.842 7.34502 217.842 7.54565 217.842C7.74627 217.842 7.84659 217.943 7.84659 218.043C7.9469 218.243 7.84659 218.444 7.84659 218.444C7.74627 218.645 7.44533 218.645 7.24471 218.645C6.94377 218.645 6.74314 218.544 6.74314 218.243C6.74314 218.043 6.74314 217.842 6.94377 217.742V217.842Z" fill="#D38D36"/>
<path d="M8.95093 301.403L10.1547 301.202C10.1547 301.202 10.3553 301.202 10.4556 301.202H10.5559L18.0794 275.221C18.0794 275.221 17.2769 274.519 16.8757 274.118L8.95093 301.403Z" fill="#D38D36"/>
<path d="M143.974 2.26865H167.749C167.749 2.26865 167.749 2.26865 167.749 2.16833C167.949 1.76708 167.849 1.66676 167.749 1.56645C167.749 1.56645 167.548 1.46614 167.347 1.46614C167.147 1.46614 167.046 1.46614 166.946 1.56645H166.645C166.645 1.56645 166.444 1.56645 166.344 1.56645C166.244 1.56645 166.144 1.56645 166.043 1.56645H165.542V1.1652C165.542 1.1652 165.843 0.964571 165.843 0.864258H144.476C144.476 0.864258 144.175 1.26551 143.974 1.36582L143.774 1.56645H143.673C143.673 1.56645 143.874 2.06802 143.874 2.26865H143.974Z" fill="#D38D36"/>
<path d="M417.831 14.5061H422.545C421.442 14.3055 419.636 14.4058 417.831 14.5061Z" fill="#D38D36"/>
<path d="M168.45 2.26892H187.109C187.109 2.26892 187.109 1.96798 187.309 1.76735C187.51 1.56672 187.811 1.3661 188.112 1.3661C188.312 1.3661 188.513 1.3661 188.513 1.56672V1.76735H188.413C188.413 1.76735 188.112 2.06829 188.012 2.1686C188.012 2.1686 188.012 2.36923 188.012 2.46954H227.836C227.836 2.46954 228.538 2.36923 228.739 2.26892C229.341 2.06829 229.541 1.56672 229.642 0.964844H168.45C168.45 0.964844 168.651 1.06516 168.751 1.16547V1.3661C168.751 1.3661 168.751 1.56672 168.751 1.66704V1.96798L168.35 2.36923L168.45 2.26892Z" fill="#D38D36"/>
<path d="M527.772 150.031V222.558L523.258 230.182V194.27H523.157C523.157 194.27 522.555 194.169 522.455 193.969C522.455 193.768 522.455 193.567 522.756 193.367C522.957 193.266 523.157 193.367 523.358 193.367V150.734C523.358 150.734 523.157 150.834 522.957 150.834C522.555 150.834 522.255 150.934 521.853 151.035V176.313C521.853 176.313 522.355 176.313 522.555 176.514C522.656 176.614 522.756 176.715 522.656 176.815C522.656 176.915 522.555 177.116 522.355 177.216C522.355 177.216 522.154 177.216 522.054 177.216C521.954 177.216 521.853 177.216 521.753 177.216V232.991L519.446 236.903C519.446 236.903 519.646 237.103 519.646 237.204C519.646 237.304 519.847 237.304 519.947 237.404C519.947 237.404 520.048 237.404 520.349 237.404C520.449 237.404 520.65 237.404 520.951 237.404L521.753 236.1V255.862C521.753 255.862 522.154 255.962 522.255 256.063C522.455 256.263 522.355 256.564 522.255 256.664C522.255 256.765 522.154 256.865 522.054 256.965C522.054 256.965 521.954 256.965 521.853 256.965H521.753V304.915L508.411 259.072L520.449 238.207H520.349C520.349 238.207 519.947 238.307 519.747 238.407H519.446C519.446 238.407 518.944 238.207 518.844 238.006L495.872 277.63C495.872 277.63 496.273 277.128 496.675 277.128C496.875 277.128 496.976 277.229 497.076 277.329C497.076 277.429 497.076 277.63 497.076 277.73C497.076 277.831 496.976 277.931 496.875 277.931C496.875 277.931 496.875 278.232 496.775 278.332C496.775 278.332 496.775 278.834 496.775 279.034C496.775 279.135 496.675 279.436 496.474 279.436C496.474 279.436 496.173 279.335 496.173 279.235C496.173 279.235 495.972 278.834 496.073 278.733C496.073 278.733 496.073 278.432 496.073 278.232C496.073 278.232 495.972 277.831 496.073 277.73L477.615 309.63H445.214C445.214 309.63 445.013 309.63 444.913 309.63H444.712H437.69C437.69 309.63 437.49 309.831 437.389 309.831C437.289 309.831 437.089 309.831 436.888 309.831C436.788 309.831 436.788 309.831 436.687 309.831H370.681C370.681 309.831 370.581 309.831 370.48 309.831H318.217L312.901 304.414H284.211C284.211 304.414 284.01 304.414 283.91 304.414C283.81 304.414 283.709 304.414 283.609 304.414H90.8067C90.8067 304.414 90.7064 304.514 90.6061 304.514C90.3052 304.514 90.3052 304.514 90.3052 304.514C90.3052 304.514 90.3052 304.815 90.2048 304.915C90.0042 305.216 89.7033 305.216 89.603 305.216C89.603 305.216 89.0011 305.016 88.9008 304.815C88.9008 304.715 88.9008 304.514 88.9008 304.414C89.0011 304.414 89.1014 304.414 89.2017 304.414H89.302C89.302 304.414 89.302 304.313 89.302 304.213H49.277L38.6438 285.856C38.6438 285.856 38.2425 285.856 37.9416 285.856C37.5403 285.856 37.2394 285.856 36.8381 285.856L43.0576 296.589L10.2551 308.527L22.8946 295.887C22.8946 295.887 22.5936 295.887 22.4933 295.787C22.393 295.686 22.2927 295.486 22.393 295.185C22.393 295.085 22.393 294.984 22.5936 294.884C22.7943 294.784 22.9949 294.884 23.0952 294.884C23.3961 294.884 23.4964 295.185 23.4964 295.285L33.0262 285.755C33.0262 285.755 32.7253 285.755 32.625 285.755C32.1234 285.655 31.8225 285.454 31.4212 285.254L8.85069 307.824L10.4557 302.307L9.05132 302.006L8.1485 305.216V269.404C8.1485 269.404 7.84756 269.204 7.74725 269.103C7.14537 268.802 6.94474 268.501 6.6438 268.201V311.135H16.6751C16.6751 311.135 17.1767 310.934 17.3773 311.034C17.3773 311.034 17.3773 311.034 17.4776 311.135H178.481C178.481 311.135 178.681 310.733 178.782 310.633C178.982 310.432 179.584 310.533 179.684 310.533C179.684 310.533 180.086 310.934 180.086 311.235H251.007C251.007 311.235 251.107 311.034 251.208 311.034H251.408C251.408 311.034 251.609 310.834 251.709 310.834C251.81 310.834 251.91 310.733 252.01 310.733C252.01 310.733 252.311 310.733 252.412 310.834C252.512 310.934 252.713 311.034 252.913 311.034C253.013 311.034 253.114 311.235 253.114 311.335H258.43C258.43 311.335 258.029 311.135 258.029 311.034C258.029 310.934 258.029 310.834 258.029 310.733C258.029 310.733 258.129 310.332 258.33 310.332C258.33 310.332 258.531 310.332 258.631 310.332C258.832 310.432 259.032 310.633 259.133 310.934C259.133 310.934 259.133 311.135 259.133 311.235H317.816L324.637 318.157H445.114L445.314 317.956C445.314 317.956 446.217 317.956 446.719 318.157H474.606L478.518 311.335H523.458V233.793L529.377 223.762V150.332C528.675 150.433 528.073 150.633 527.972 150.633L527.772 150.031ZM507.308 260.577L509.916 269.605C509.916 269.605 510.117 269.605 510.217 269.605C510.518 269.705 510.518 269.906 510.418 270.307C510.418 270.508 510.217 270.608 510.117 270.608L520.85 307.323L504.8 291.273C504.8 291.273 504.499 291.273 504.399 291.273C504.298 291.273 504.098 291.273 503.997 291.273C503.797 291.172 503.596 291.072 503.596 290.771C503.596 290.771 503.596 290.37 503.596 290.169L495.07 281.643L507.208 260.677L507.308 260.577ZM494.367 282.947L509.013 297.592C509.013 297.592 508.913 297.392 509.013 297.191C509.013 296.99 509.214 296.89 509.314 296.89C509.314 296.89 509.615 296.99 509.816 297.091H510.016C510.016 297.091 510.217 297.291 510.317 297.492C510.317 297.693 510.317 297.693 510.317 297.793C510.317 297.793 510.418 297.994 510.418 298.094C510.418 298.094 510.418 298.295 510.418 298.495C510.418 298.495 510.317 298.595 510.217 298.595L519.747 308.125L499.684 300.802C499.684 300.802 499.885 301.003 499.784 301.204C499.784 301.404 499.584 301.404 499.483 301.505C499.483 301.605 499.283 301.705 499.283 301.705C499.283 301.705 499.182 301.705 499.082 301.705C499.082 301.705 498.982 301.705 498.882 301.705H498.681H498.48C498.48 301.705 498.28 301.605 498.28 301.505C498.28 301.304 498.28 301.204 498.38 301.103C498.38 301.103 498.581 300.802 498.681 300.802L486.744 296.389L494.367 283.147V282.947ZM237.766 309.229C237.766 309.229 237.766 309.63 237.766 309.73V309.931H237.565V310.132C237.565 310.132 237.064 309.931 236.963 309.831C236.963 309.73 236.763 309.53 236.662 309.53H236.361C236.361 309.53 235.96 309.329 235.86 309.329H222.618L221.415 310.332L222.117 309.329H138.857C138.556 309.931 138.255 310.031 138.054 310.031H137.854C137.653 310.031 137.553 309.931 137.553 309.73C137.553 309.63 137.553 309.53 137.553 309.429H11.5592L43.7597 297.592L48.0732 305.116L48.2739 305.517H259.133L258.932 305.316C258.932 305.316 258.631 305.216 258.631 305.016C258.631 304.815 258.631 304.614 259.032 304.514C259.233 304.514 259.634 304.514 260.035 304.514C260.035 304.514 260.236 304.313 260.437 304.313H260.637C260.637 304.313 260.637 304.113 260.838 304.012C260.938 304.012 261.139 304.012 261.239 304.012C261.339 304.012 261.54 304.113 261.54 304.414C261.64 304.815 261.54 305.216 261.139 305.417C260.938 305.617 260.738 305.417 260.637 305.417C260.637 305.417 260.437 305.417 260.336 305.417C260.136 305.417 260.035 305.417 259.835 305.417H268.06C268.06 305.417 268.06 305.216 268.06 305.116L268.261 304.815L268.562 305.116C268.562 305.116 268.763 305.116 268.863 305.116C269.064 305.116 269.264 305.116 269.264 304.815V304.213L269.665 304.514L269.966 304.715L270.167 304.915L269.966 305.116V305.316H269.766C269.766 305.316 269.766 305.417 269.665 305.517H312.299L316.111 309.329H237.866L237.766 309.229ZM316.612 310.332H316.512V310.633H316.111L315.91 310.432L315.007 310.031H316.813L316.512 310.432L316.612 310.332ZM473.502 316.05H325.038L319.722 310.733H333.565C333.565 310.733 333.565 310.733 333.665 310.733H447.521C447.521 310.733 447.521 310.533 447.521 310.432C447.521 310.332 447.822 310.031 448.123 310.132C448.324 310.132 448.424 310.332 448.424 310.432H448.625C448.625 310.432 448.925 310.533 448.925 310.733H476.311L473.201 316.05H473.502ZM500.687 309.229C500.687 309.229 500.687 309.429 500.687 309.53C500.487 309.73 500.286 309.831 500.085 309.831C500.085 309.831 499.985 309.831 499.885 309.831C499.584 309.73 499.383 309.53 499.383 309.329H497.878C497.878 309.329 497.979 309.329 498.079 309.329C498.179 309.53 498.179 309.73 498.079 309.831C497.878 310.031 497.577 310.132 497.277 310.132H497.076C496.775 310.132 496.574 309.831 496.574 309.53C496.574 309.429 496.574 309.329 496.675 309.229H479.22L486.041 297.492L518.242 309.229H500.787H500.687Z" fill="#D38D36"/>
<path d="M523.259 84.2247V6.68243H454.544C454.544 6.68243 454.744 6.78275 454.744 6.88306C454.744 7.08369 454.745 7.28431 454.444 7.38463C454.343 7.38463 454.143 7.48494 454.042 7.48494C453.741 7.48494 453.541 7.38463 453.44 7.08369C453.44 6.98337 453.44 6.78275 453.44 6.68243H318.72L312.901 0.864258H231.046V1.1652C231.046 1.1652 230.745 2.06802 230.243 2.36896H312.3L316.613 6.68243H223.823C223.823 6.68243 223.622 6.98337 223.522 7.184C223.322 7.58525 223.322 7.78588 223.322 8.18713H318.118L324.538 14.6072H412.212C413.215 14.2059 414.318 13.905 415.221 13.8047C417.027 13.6041 420.237 13.4034 422.143 13.4034H422.544C423.948 13.4034 424.149 13.6041 424.55 13.905C424.65 14.0053 424.851 14.1056 425.052 14.2059C425.553 14.4066 425.654 14.5069 425.854 14.5069H473.704C473.704 14.5069 473.002 14.5069 472.901 14.3063C472.701 14.0053 472.701 13.7044 472.901 13.5037C473.102 13.3031 473.403 13.2028 473.704 13.3031C474.005 13.4034 474.306 13.7044 474.306 14.1056C474.306 14.3063 474.306 14.5069 474.105 14.6072H480.926V14.2059L484.738 20.7263C484.738 20.7263 484.738 20.626 484.939 20.5257C485.039 20.5257 485.139 20.5257 485.24 20.5257C485.741 20.5257 486.042 20.7263 486.143 20.9269C486.143 21.0272 486.042 21.2279 485.842 21.4285C485.842 21.4285 485.842 21.6291 485.741 21.6291C485.641 21.6291 485.541 21.6291 485.44 21.6291L521.854 84.4253V149.328H522.055C522.055 149.328 522.857 149.127 523.459 148.927V126.557C523.459 126.557 523.058 127.058 522.657 127.058C522.657 127.058 522.155 126.858 522.055 126.758C522.055 126.557 522.055 126.256 522.255 126.055C522.456 125.855 522.757 125.754 522.958 125.855C523.259 125.855 523.459 126.156 523.559 126.256V87.1338L528.074 95.1588V112.112C528.074 112.112 528.274 112.011 528.375 111.811C528.375 111.811 528.575 111.51 528.776 111.51H528.876C528.876 111.51 529.077 111.51 529.177 111.51C529.277 111.51 529.378 111.51 529.478 111.51V94.6573L523.459 83.9237L523.259 84.2247ZM345.503 6.78275H345.604C345.604 6.78275 345.904 6.68243 346.105 6.68243C346.306 6.68243 346.406 6.88306 346.406 6.98337C346.406 7.184 346.306 7.38463 346.105 7.58525C346.005 7.68557 345.804 7.88619 345.503 7.88619H345.403C345.403 7.88619 344.901 7.68557 344.901 7.38463C344.901 6.98337 345.102 6.88306 345.503 6.88306V6.78275ZM451.735 13.0022C451.735 13.0022 451.735 13.0022 451.735 13.2028C451.735 13.4034 451.434 13.4034 451.334 13.5037C451.334 13.5037 451.133 13.5037 451.033 13.5037C450.832 13.5037 450.732 13.5037 450.431 13.3031C450.431 13.3031 450.23 13.2028 450.13 13.2028C450.03 13.2028 449.929 13.2028 449.829 13.0022H355.535L355.835 13.2028L355.635 13.4034V13.8047L354.933 13.4034V13.0022H327.246C327.246 13.0022 327.046 13.0022 326.845 13.0022C326.745 13.0022 326.644 13.0022 326.544 12.9019H325.14L320.224 7.98651H400.375C400.375 7.98651 400.375 7.68557 400.475 7.58525C400.776 7.38463 400.977 7.28431 401.177 7.38463C401.378 7.38463 401.478 7.58525 401.478 7.88619C401.478 7.88619 401.478 7.88619 401.478 7.98651H417.729C417.729 7.98651 417.328 7.78588 417.328 7.58525C417.328 7.38463 417.528 7.28431 417.629 7.184H417.829C417.829 7.184 418.331 6.78275 418.632 6.88306H418.933C418.933 6.88306 419.334 7.08369 419.635 7.184C419.635 7.184 420.538 7.58525 420.738 7.88619H477.415L480.224 12.8015H451.635L451.735 13.0022ZM479.221 8.08682H518.243L486.042 19.8235L479.221 8.08682ZM519.547 9.19027L513.528 15.2091C513.528 15.2091 513.729 15.2091 513.829 15.3094C513.829 15.3094 513.829 15.7106 513.829 15.811C513.628 16.0116 513.328 16.1119 513.027 16.1119H512.826C512.826 16.1119 512.826 16.1119 512.826 16.0116L498.28 30.557C498.28 30.557 498.481 30.3564 498.682 30.4567C498.983 30.4567 499.083 30.7576 499.083 30.858C499.083 31.0586 498.983 31.2592 498.682 31.5602C498.581 31.5602 498.381 31.6605 498.28 31.6605C498.08 31.6605 497.98 31.6605 497.779 31.4598C497.779 31.4598 497.779 31.2592 497.779 31.1589L494.569 34.3689L486.945 21.1276L519.748 9.19027H519.547ZM520.951 9.89246L507.309 56.6385L495.171 35.673L520.951 9.89246ZM521.754 12.6009V81.5162L508.412 58.4441L521.754 12.6009ZM521.252 82.5193H521.052C521.052 82.5193 520.65 82.3187 520.55 82.1181C520.55 81.9175 520.55 81.7168 520.65 81.5162C520.851 81.3156 521.052 81.2153 521.353 81.3156C521.654 81.3156 521.654 81.6165 521.754 81.8172L521.954 82.0178C521.954 82.0178 521.854 82.0178 521.754 82.1181C521.654 82.2184 521.553 82.419 521.252 82.419V82.5193Z" fill="#D38D36"/>
<path d="M528.677 112.715C528.677 112.715 528.677 113.016 528.476 113.116C528.476 113.116 528.576 113.317 528.476 113.417C528.476 113.517 528.376 113.618 528.275 113.618C528.275 113.618 528.175 113.618 528.075 113.618C528.075 113.618 527.874 113.618 527.774 113.517V148.125C527.774 148.125 527.774 148.125 527.975 148.125H528.175C528.175 148.125 528.877 148.125 529.279 148.125V134.984C529.279 134.984 528.978 134.984 528.877 134.884C528.877 134.884 528.777 134.683 528.877 134.483C528.877 134.483 528.777 134.483 528.677 134.382V134.082C528.677 134.082 529.078 133.881 529.279 133.781C529.279 133.781 529.279 133.781 529.379 133.781V112.414C529.379 112.414 529.078 112.514 528.777 112.614L528.677 112.715Z" fill="#D38D36"/>
<path d="M0.72675 124.651C0.72675 124.651 1.02769 124.45 1.42894 124.45C1.62957 124.45 1.93051 124.45 2.03082 124.651L2.13114 124.852V95.2591L6.64524 87.2341V99.9739L7.14681 99.6729H7.34743L7.54806 99.372H7.64837C7.64837 99.372 7.849 99.372 7.94931 99.4723C7.94931 99.4723 7.94931 99.4723 8.04963 99.4723V84.4253L41.7549 27.2467H40.9524L41.6546 26.7451C41.6546 26.7451 41.8552 26.5445 42.0559 26.5445L48.2753 15.9113C48.2753 15.9113 48.0747 15.9113 47.9744 15.9113C47.9744 15.9113 47.7737 15.51 47.7737 15.4097C47.7737 15.4097 47.7737 15.0084 47.9744 14.9081H48.175C48.175 14.9081 48.4759 14.7075 48.5762 14.7075C48.6765 14.7075 48.8772 14.7075 48.9775 14.7075L49.1781 14.9081L52.6891 8.88933C52.6891 8.88933 52.2878 8.58839 52.2878 8.48807C52.2878 8.48807 52.2878 8.38776 52.2878 8.28745C52.2878 8.28745 52.1875 8.28745 52.0872 8.18713C52.0872 8.18713 52.0872 7.88619 52.0872 7.78588C52.0872 7.78588 52.0872 7.68557 52.0872 7.58525C52.0872 7.58525 52.0872 7.38463 52.1875 7.28431C52.1875 7.28431 52.3881 7.28431 52.4885 7.28431C52.6891 7.28431 52.6891 7.28431 52.8897 7.28431H52.99C52.99 7.28431 53.291 7.38463 53.3913 7.48494H53.5919C53.5919 7.48494 54.1938 7.68557 54.1938 7.88619V8.08682H144.476C144.476 8.08682 144.275 7.98651 144.175 7.98651C143.774 7.98651 143.573 7.98651 143.473 7.78588C143.473 7.68557 143.473 7.58525 143.473 7.48494C143.673 7.184 144.676 6.88306 144.877 6.98337C144.977 6.98337 145.68 7.28431 145.78 7.68557C145.78 7.98651 145.479 8.08682 145.178 8.18713H221.918C221.918 8.18713 221.918 7.68557 221.918 7.48494C221.918 7.28431 222.118 7.08369 222.018 6.88306C222.018 6.88306 222.018 6.78275 222.018 6.68243H179.987C179.987 6.68243 180.288 6.78275 180.388 6.88306H180.488C180.488 6.88306 180.789 6.98337 180.89 7.184V7.38463C180.89 7.38463 180.89 7.48494 180.89 7.58525C180.789 7.78588 180.388 7.78588 180.187 7.78588C179.987 7.78588 179.987 7.78588 179.786 7.78588H179.485C179.485 7.78588 178.883 7.48494 178.883 7.28431C178.883 7.28431 178.883 7.08369 179.184 6.98337C179.184 6.98337 179.184 6.88306 179.385 6.78275H154.006C154.006 6.78275 154.206 7.08369 154.206 7.28431C154.206 7.28431 154.206 7.48494 154.106 7.48494C154.106 7.48494 154.307 7.48494 154.407 7.68557V7.98651C154.407 7.98651 154.006 8.18713 153.805 8.18713C153.705 8.18713 153.604 8.18713 153.504 8.18713C153.404 8.18713 153.103 7.98651 153.103 7.58525C153.103 7.48494 153.103 7.38463 153.203 7.28431L153.002 7.08369C153.002 7.08369 153.002 6.98337 153.002 6.88306H82.3818C82.3818 6.88306 82.3819 7.08369 82.1812 7.08369C82.1812 7.08369 81.9806 7.08369 81.8803 7.08369H53.9932L56.501 2.6699H88.501C88.501 2.6699 88.501 2.16833 88.9022 2.06802C89.2032 2.06802 89.4038 1.86739 89.6044 2.06802C89.7047 2.26865 89.6044 2.36896 89.6044 2.46927H142.971C142.971 2.46927 142.871 2.46927 142.67 2.46927H142.57C142.57 2.46927 142.269 2.26865 142.269 2.16833C142.269 2.16833 142.269 2.16833 142.169 2.16833C142.068 2.16833 141.968 2.16833 141.767 2.16833C141.567 2.16833 141.466 2.16833 141.366 2.16833C140.865 2.06802 140.865 1.76708 140.865 1.66676C140.865 1.46614 141.065 1.36582 141.366 1.26551H141.667C141.667 1.26551 142.068 1.26551 142.369 1.26551C142.57 1.26551 142.67 1.26551 142.771 1.26551C142.971 1.26551 142.971 1.26551 143.071 1.26551L143.272 1.06488H81.0778C81.0778 1.06488 80.8771 1.1652 80.6765 1.1652H80.4759C80.4759 1.1652 80.1749 1.1652 79.874 1.26551C79.7737 1.26551 79.7737 1.26551 79.6734 1.26551C79.6734 1.26551 79.4728 1.36582 79.3724 1.36582C79.3724 1.36582 78.5699 1.36582 78.4696 0.964571C78.4696 0.964571 78.4696 0.964571 78.4696 0.864258H55.5982L52.1875 6.68243H37.0402C37.0402 6.68243 37.3411 6.88306 37.2408 7.08369C37.2408 7.38463 36.8396 7.48494 36.6389 7.48494C36.6389 7.48494 36.1374 7.28431 36.0371 7.08369C36.0371 6.98337 36.0371 6.78275 36.1374 6.68243H6.54493V75.7983L7.14681 75.2968L6.54493 76.1996V84.2247L3.93678 88.8391C3.93678 88.8391 4.33803 88.8391 4.53866 88.8391H4.73928C4.73928 88.8391 5.04023 88.9394 5.14054 89.14C5.34117 89.3407 5.24085 89.6416 5.24085 89.7419C5.24085 89.9425 5.04023 89.9425 4.73928 90.0429C4.63897 90.0429 4.33803 90.0428 4.33803 90.1432C4.1374 90.3438 3.93678 90.5444 3.73615 90.5444H3.53552C3.43521 90.5444 3.3349 90.2435 3.3349 90.1432L0.526123 94.9582V106.595C0.526123 106.595 0.927377 106.996 0.927377 107.196C0.927377 107.497 0.927377 107.698 0.526123 107.798V124.751H0.72675V124.651ZM8.04963 81.6165V12.7012L10.7581 21.9301C10.7581 21.9301 11.1593 21.9301 11.36 22.1307C11.6609 22.3313 11.7612 22.5319 11.7612 22.7326C11.7612 23.0335 11.36 23.2341 11.1593 23.2341L21.4916 58.8454L8.04963 81.7168V81.6165ZM22.4948 57.0397L21.0904 52.2247H20.7894C20.7894 52.2247 20.5888 52.2247 20.3882 52.2247C20.3882 52.2247 20.0872 51.9238 20.0872 51.8235C20.0872 51.5225 20.4885 51.6228 20.5888 51.6228C20.7894 51.6228 20.7894 51.6228 20.7894 51.6228L19.9869 48.7137V48.5131L15.3725 32.7639C15.3725 32.7639 15.0716 32.7639 14.9713 32.7639H14.7706C14.7706 32.7639 14.3694 32.2623 14.3694 32.0617C14.3694 31.8611 14.4697 31.7608 14.6703 31.7608H14.8709H15.0716L8.85213 9.99277L34.8333 35.9739L22.4948 57.0397ZM35.6358 34.6699L10.2565 9.29058L15.1719 11.0962C15.1719 11.0962 15.3725 10.9959 15.4728 11.0962C15.5731 11.0962 15.7738 11.2968 15.8741 11.4975L43.4603 21.5288L35.6358 34.8705V34.6699ZM51.2847 8.18713L44.2628 20.1244L11.5606 8.18713H51.2847Z" fill="#D38D36"/>
<path d="M2.03052 214.834V127.762L1.52896 127.26L1.8299 126.859L2.03052 127.06V124.953C2.03052 124.953 2.03052 125.154 1.93021 125.254C1.8299 125.455 1.42864 125.655 1.22802 125.655H1.1277C1.1277 125.655 0.726449 125.354 0.626135 125.154V145.718C0.626135 145.718 1.02739 145.517 1.22802 145.718C1.22802 145.718 1.62927 145.718 1.72958 145.919C1.72958 145.919 1.72958 146.119 1.72958 146.32C1.62927 146.621 1.52896 146.721 1.32833 146.721H0.927076C0.927076 146.721 0.626135 146.922 0.525822 147.022V173.605C0.525822 173.605 0.726449 173.204 1.02739 173.104C1.02739 173.104 1.42864 173.304 1.62927 173.404C1.8299 173.505 1.8299 173.705 1.62927 173.906C1.52896 174.107 1.22802 174.207 1.02739 174.207C1.02739 174.207 0.826762 174.207 0.726449 174.207C0.325195 174.006 0.325195 173.705 0.325195 173.705V213.831C0.325195 213.831 0.826762 214.332 1.02739 214.433C1.22802 214.533 1.52896 214.734 1.8299 214.934L2.03052 214.834Z" fill="#D38D36"/>
</svg>
