<svg width="550" height="330" viewBox="0 0 550 330" fill="none" xmlns="http://www.w3.org/2000/svg">
<path d="M542.452 7.2749H7.51685V321.299H542.452V7.2749Z" stroke="#D38D36" stroke-width="1.56231" stroke-miterlimit="10"/>
<path d="M36.68 292.242L7.51685 321.405L45.8455 307.448" stroke="#D38D36" stroke-width="1.56231" stroke-linecap="round" stroke-linejoin="round"/>
<path d="M7.51685 321.404L23.0358 268.181" stroke="#D38D36" stroke-width="1.56231" stroke-linecap="round" stroke-linejoin="round"/>
<path d="M513.394 292.242L542.557 321.405L504.333 307.448" stroke="#D38D36" stroke-width="1.56231" stroke-linecap="round" stroke-linejoin="round"/>
<path d="M527.039 268.181L542.558 321.404" stroke="#D38D36" stroke-width="1.56231" stroke-linecap="round" stroke-linejoin="round"/>
<path d="M36.68 36.4405L7.51685 7.27734L45.8455 21.234" stroke="#D38D36" stroke-width="1.56231" stroke-linecap="round" stroke-linejoin="round"/>
<path d="M7.51685 87.267L58.1357 1.33984H394.663L407.266 13.9425H499.332" stroke="#D38D36" stroke-width="1.56231" stroke-miterlimit="10"/>
<path d="M7.51685 7.27734L23.0358 60.5001" stroke="#D38D36" stroke-width="1.56231" stroke-linecap="round" stroke-linejoin="round"/>
<path d="M7.51685 241.413L50.6366 315.779H114.067L126.67 328.486H492.146L542.556 241.413" stroke="#D38D36" stroke-width="1.56231" stroke-miterlimit="10"/>
<path d="M513.394 36.438L542.557 7.2749L504.333 21.2316" stroke="#D38D36" stroke-width="1.56231" stroke-linecap="round" stroke-linejoin="round"/>
<path d="M496.208 7.2749L542.557 87.2652L548.806 98.4097V230.79L542.557 241.413" stroke="#D38D36" stroke-width="1.56231" stroke-miterlimit="10"/>
<path d="M542.557 7.2749L527.038 60.4976" stroke="#D38D36" stroke-width="1.56231" stroke-linecap="round" stroke-linejoin="round"/>
<path d="M7.51863 87.2668L1.37354 98.4113V230.791L7.51863 241.415" stroke="#D38D36" stroke-width="1.56231" stroke-miterlimit="10"/>
</svg>
